<svg xmlns="http://www.w3.org/2000/svg" viewBox="0 0 283.38 38.04"><title>diesel_only_black</title><polygon points="85.82 37.15 129.28 37.15 129.28 28.47 103.19 28.47 103.19 22.61 124.3 22.61 124.3 14.54 103.19 14.54 103.19 9.25 129.28 9.25 129.28 0.9 85.82 0.9 85.82 37.15" fill="#231f20"/><rect x="58.52" y="0.9" width="17.89" height="36.24" fill="#231f20"/><path d="M22.85,12.55h2l4.12.14,1.68.16,1.43.26,1.25.32,1.07.4.88.48.72.56.59.62.45.72.35.82.23.9.16,1,.08,1.1.06,2.48-.06,2.6-.08,1.16-.16,1-.23.94-.35.84-.45.74-.59.66-.72.56-.88.48-1.07.38-1.25.34-1.43.24L29,32.67l-4.12.16h-2ZM5,4.58v36.2H25.18L30,40.7l4.31-.18,3.83-.34,3.36-.46,3-.62L47,38.36l2.17-.9,1-.5.86-.52,1.54-1.18,1.21-1.34,1-1.46.7-1.64L55.94,29l.35-1.94.19-2.1,0-2.24-.06-2.28-.18-2.11-.35-2-.53-1.78L54.63,13l-1-1.48-.62-.7-.71-.64-.78-.62L50.63,9l-.94-.56-1-.5L47.5,7.45,46.24,7l-2.79-.76-3.26-.6-3.73-.48-4.26-.34-4.79-.2L22,4.58Z" transform="translate(-5.04 -3.64)" fill="#231f20"/><polygon points="242.79 0.9 242.79 37.15 283.38 37.15 283.38 28.27 260.68 28.27 260.68 0.9 242.79 0.9" fill="#231f20"/><polygon points="191.58 37.15 235.04 37.15 235.04 28.47 208.98 28.47 208.98 22.61 230.06 22.61 230.06 14.54 208.98 14.54 208.98 9.25 235.04 9.25 235.04 0.9 191.58 0.9 191.58 37.15" fill="#231f20"/><polygon points="160.53 0 156.13 0.14 151.84 0.58 149.79 0.92 147.83 1.36 145.94 1.9 144.18 2.56 142.4 3.35 140.8 4.19 139.43 5.13 138.28 6.15 137.38 7.29 137.03 7.91 136.72 8.55 136.5 9.23 136.33 9.97 136.25 10.73 136.21 11.55 136.39 13.16 136.86 14.62 137.21 15.28 137.6 15.9 138.59 17.04 139.8 18.04 141.19 18.94 142.77 19.7 144.49 20.41 146.35 20.98 148.3 21.51 152.4 22.39 160.75 23.79 163.28 24.33 164.53 24.67 165.69 25.07 166.7 25.53 167.5 26.11 167.8 26.43 168.03 26.77 168.17 27.15 168.21 27.55 168.17 27.87 168.03 28.19 167.82 28.47 167.54 28.75 166.8 29.21 165.82 29.56 164.69 29.82 163.46 30 162.19 30.09 160.92 30.13 158.85 30.06 157.06 29.86 155.53 29.52 154.24 29.05 153.17 28.43 152.27 27.69 151.53 26.81 150.9 25.77 134.2 25.77 134.38 27.15 134.55 27.81 134.8 28.47 135.43 29.69 136.31 30.88 137.4 31.96 138.69 32.98 140.16 33.9 141.82 34.74 143.65 35.48 145.61 36.14 147.74 36.72 149.98 37.18 152.34 37.56 154.81 37.82 157.4 37.98 160.04 38.04 162.54 38 165.02 37.91 167.44 37.7 169.77 37.44 172.03 37.08 174.18 36.62 176.2 36.08 178.09 35.44 179.85 34.68 181.41 33.82 182.78 32.86 183.93 31.78 184.87 30.57 185.24 29.92 185.55 29.23 185.79 28.53 185.98 27.77 186.08 26.99 186.12 26.19 185.98 24.55 185.81 23.79 185.55 23.11 185.24 22.43 184.85 21.81 183.87 20.66 182.64 19.64 181.92 19.16 181.14 18.72 179.42 17.88 177.47 17.12 175.47 16.46 173.38 15.92 171.27 15.44 169.1 15.02 160.51 13.6 158.28 13.1 156.06 12.44 155.12 12.02 154.38 11.49 153.89 10.89 153.71 10.17 153.85 9.45 154.26 8.87 154.87 8.41 155.67 8.07 156.62 7.83 157.66 7.67 159.85 7.57 161.7 7.63 163.25 7.81 164.56 8.11 165.67 8.51 166.61 9.01 167.41 9.61 168.11 10.31 168.73 11.07 184.24 11.07 184.18 10.39 184.05 9.76 183.89 9.11 183.64 8.51 183.35 7.91 183.01 7.35 182.15 6.27 181.1 5.27 179.87 4.37 178.46 3.55 176.9 2.81 175.22 2.14 173.4 1.56 171.47 1.08 169.42 0.7 167.31 0.4 165.1 0.18 162.85 0.04 160.53 0" fill="#231f20"/></svg>