<svg xmlns="http://www.w3.org/2000/svg" xmlns:xlink="http://www.w3.org/1999/xlink" viewBox="0 0 256.227 93.168"><defs><clipPath id="a"><rect width="256.227" height="93.168" fill="#050517"/></clipPath><clipPath id="b"><rect width="256.227" height="267.168" fill="#050517"/></clipPath></defs><g transform="translate(0)"><g clip-path="url(#a)"><path d="M620.607,398.216H659.89v-8.174H636.314v-5.53H655.39v-7.6H636.314v-4.981H659.89v-7.87H620.607Z" transform="translate(-542.961 -346.808)" fill="#050517"/><rect width="16.169" height="34.159" transform="translate(52.971 17.249)" fill="#050517"/><path d="M576.152,371.6h1.832l3.723.131,1.519.151,1.3.244,1.129.3.962.377.8.452.65.529.537.584.406.681.314.773.205.85.147.923.077,1.039.055,2.34-.055,2.454-.077,1.094-.147.981-.205.884-.314.795-.406.7-.537.622-.65.529-.8.454-.962.355-1.129.322-1.3.227-1.519.17-3.723.151h-1.832Zm-16.095-7.513v34.123h18.2l4.371-.077,3.891-.17,3.46-.321,3.039-.434,2.669-.585,2.314-.7,1.963-.848.871-.472.779-.492,1.39-1.113,1.091-1.264.871-1.379.629-1.547.462-1.679.315-1.831.168-1.981.037-2.115-.056-2.149-.168-1.984-.315-1.847-.482-1.681-.684-1.547-.925-1.4-.559-.66-.646-.6-.7-.586-.778-.526-.852-.528-.944-.473-1.038-.433-1.13-.4-2.517-.717-2.947-.566-3.371-.453-3.854-.323-4.331-.186-4.871-.059Z" transform="translate(-559.984 -346.799)" fill="#050517"/><path d="M731.358,364.058v34.159h36.694v-8.363H747.529v-25.8Z" transform="translate(-511.825 -346.808)" fill="#050517"/><path d="M695.23,398.216h39.284v-8.174H710.955v-5.53h19.057v-7.6H710.955v-4.981h23.559v-7.87H695.23Z" transform="translate(-521.982 -346.808)" fill="#050517"/><path d="M678.545,363.42l-3.983.135-3.871.413-1.851.322-1.78.415-1.7.509-1.594.624-1.61.737-1.443.792-1.242.887-1.036.962-.817,1.076-.315.584-.277.6-.2.64-.148.7-.073.718-.038.773.166,1.51.425,1.377.317.622.35.585.891,1.077,1.094.942,1.259.85,1.425.716,1.555.661,1.686.547,1.76.491,3.705.83,7.555,1.322,2.281.51,1.129.318,1.055.378.907.434.726.547.273.3.2.322.132.359.036.377-.036.3-.132.3-.185.263-.257.263-.668.435-.889.322-1.02.245-1.111.17-1.149.093-1.146.037-1.872-.072-1.613-.189-1.387-.322-1.169-.435-.963-.583-.814-.7-.667-.83-.575-.979H654.744l.166,1.3.148.622.223.622.572,1.151.8,1.115.983,1.019,1.168.964,1.334.865,1.5.794,1.647.7,1.78.622,1.926.547,2.019.436,2.133.359,2.238.243,2.334.153,2.389.055,2.26-.039,2.24-.091,2.186-.189,2.112-.245,2.038-.34,1.945-.436,1.831-.506,1.706-.6,1.59-.718,1.409-.811,1.243-.906,1.037-1.018.853-1.134.332-.62.277-.643.221-.661.167-.718.094-.734.036-.755-.13-1.55-.148-.713-.24-.645-.277-.641-.354-.585-.886-1.074-1.114-.963-.647-.454-.7-.413-1.553-.794-1.764-.713-1.812-.625-1.891-.512-1.905-.451-1.963-.4-7.76-1.337-2.02-.474-2-.622-.85-.4-.667-.492-.445-.565-.167-.68.129-.678.371-.549.556-.435.722-.32.853-.226.943-.152,1.982-.093,1.668.057,1.406.168,1.185.285,1,.377.85.47.722.566.628.661.559.718h14.02l-.054-.642-.112-.6-.148-.608-.223-.564-.259-.566-.313-.53-.781-1.018-.945-.944-1.11-.849-1.277-.773-1.407-.7-1.52-.625-1.65-.549-1.739-.452-1.852-.357-1.908-.284-2-.209-2.036-.132Z" transform="translate(-533.364 -347.022)" fill="#050517"/><path d="M560.028,399.577v11.308h3.647V406.4h4.051v-2.332h-4.051v-2.154h6.145v-2.335Z" transform="translate(-559.992 -334.879)" fill="#050517"/><g transform="translate(0 -75)"><g clip-path="url(#b)"><path d="M575.291,411.148c-3.8,0-6.094-2.26-6.094-5.864s2.3-5.863,6.094-5.863,6.1,2.258,6.1,5.863-2.3,5.864-6.1,5.864m-2.246-5.864c0,3.036,1,3.62,2.246,3.62,1.232,0,2.246-.584,2.246-3.62,0-2.872-.828-3.621-2.246-3.621-1.469,0-2.246.884-2.246,3.621" transform="translate(-557.414 -259.931)" fill="#050517"/><path d="M581.138,399.577h6.111c4.255,0,5.082,1.794,5.082,3.262a3.082,3.082,0,0,1-2.415,2.84l2.382,5.206h-4.052l-1.806-4.637h-1.655v4.637h-3.646Zm3.646,4.518h1.891c1.047,0,1.806-.4,1.806-1.137,0-.717-.523-1.228-1.654-1.228h-2.043Z" transform="translate(-554.057 -259.879)" fill="#050517"/><path d="M606.4,402.755a3.468,3.468,0,0,0-2.667-1c-.912,0-1.536.283-1.536.808,0,1.823,7.007.211,7.007,4.816,0,1.87-1.69,3.77-5.42,3.77-2.279,0-4.288-.478-5.638-2.2l2.195-1.508a4.258,4.258,0,0,0,3.208,1.375c1.435,0,2.009-.494,2.009-.987,0-1.721-6.905-.4-6.905-4.681,0-2.215,2.077-3.724,5.132-3.724a6.18,6.18,0,0,1,4.745,1.779Z" transform="translate(-549.275 -259.931)" fill="#050517"/><path d="M619.555,406.832c0,2.033-1.148,4.263-5.436,4.263-4.22,0-5.234-2.29-5.234-4.114v-7.4h3.646v7.12a1.853,1.853,0,0,0,2.028,1.973c1.417,0,2.193-.582,2.193-2.318v-6.775h2.8Z" transform="translate(-546.256 -259.879)" fill="#050517"/><path d="M627.088,403.624a1.977,1.977,0,0,0-1.942-1.96c-1.418,0-2.128,1.062-2.128,3.5,0,2.527.643,3.739,2.465,3.739a2.545,2.545,0,0,0,2.4-2.111l2.735.525c-.86,2.677-2.735,3.829-5.841,3.829a5.514,5.514,0,0,1-5.6-5.775c0-4.156,3.039-5.951,6.129-5.951,3.191,0,4.947,1.914,5.2,3.978Z" transform="translate(-543.365 -259.931)" fill="#050517"/><path d="M637.672,403.624a1.975,1.975,0,0,0-1.941-1.96c-1.418,0-2.127,1.062-2.127,3.5,0,2.527.641,3.739,2.465,3.739a2.547,2.547,0,0,0,2.4-2.111l2.734.525c-.861,2.677-2.734,3.829-5.842,3.829a5.513,5.513,0,0,1-5.6-5.775c0-4.156,3.039-5.951,6.128-5.951,3.191,0,4.948,1.914,5.2,3.978Z" transform="translate(-540.389 -259.931)" fill="#050517"/><path d="M641.006,399.577h9.606v2.335h-5.96v2.048h3.815v2.333h-3.815v2.171H650.8v2.422h-9.792Z" transform="translate(-537.226 -259.879)" fill="#050517"/><path d="M658.933,402.755a3.468,3.468,0,0,0-2.667-1c-.912,0-1.536.283-1.536.808,0,1.823,7.007.211,7.007,4.816,0,1.87-1.689,3.77-5.421,3.77-2.279,0-4.288-.478-5.638-2.2l2.195-1.508a4.26,4.26,0,0,0,3.208,1.375c1.435,0,2.008-.494,2.008-.987,0-1.721-6.9-.4-6.9-4.681,0-2.215,2.077-3.724,5.132-3.724a6.176,6.176,0,0,1,4.744,1.779Z" transform="translate(-534.508 -259.931)" fill="#050517"/><path d="M669.519,402.755a3.468,3.468,0,0,0-2.667-1c-.912,0-1.536.283-1.536.808,0,1.823,7.006.211,7.006,4.816,0,1.87-1.69,3.77-5.419,3.77-2.279,0-4.289-.478-5.641-2.2l2.2-1.508a4.26,4.26,0,0,0,3.208,1.375c1.435,0,2.009-.494,2.009-.987,0-1.721-6.905-.4-6.905-4.681,0-2.215,2.078-3.724,5.133-3.724a6.177,6.177,0,0,1,4.744,1.779Z" transform="translate(-531.532 -259.931)" fill="#050517"/><path d="M672.344,399.577h9.791v2.335h-6.146v2.154h4.052V406.4h-4.052v4.488h-3.646Z" transform="translate(-528.416 -259.879)" fill="#050517"/><path d="M693.255,406.832c0,2.033-1.148,4.263-5.436,4.263-4.22,0-5.233-2.29-5.233-4.114v-7.4h3.646v7.12a1.853,1.853,0,0,0,2.027,1.973c1.418,0,2.193-.582,2.193-2.318v-6.775h2.8Z" transform="translate(-525.537 -259.879)" fill="#050517"/><path d="M693.83,399.577h3.646v8.886h5.336v2.422H693.83Z" transform="translate(-522.376 -259.879)" fill="#050517"/><path d="M709.108,399.577h3.646v8.886h5.336v2.422h-8.982Z" transform="translate(-518.08 -259.879)" fill="#050517"/><rect width="3.646" height="11.308" transform="translate(202.936 139.698)" fill="#050517"/><path d="M723.222,399.577h3.764l2.871,7.389h.033l2.853-7.389h3.073l-4.557,11.308h-3.53Z" transform="translate(-514.112 -259.879)" fill="#050517"/><rect width="3.646" height="11.308" transform="translate(224.051 139.698)" fill="#050517"/><path d="M740.395,399.577h3.393l4.54,6h.035v-6h2.8v11.308h-2.735l-5.2-6.4H743.2v6.4h-2.8Z" transform="translate(-509.285 -259.879)" fill="#050517"/><path d="M756.844,405.284H762.4v5.639h-1.047l-1.081-1.181a4.824,4.824,0,0,1-3.729,1.407,5.469,5.469,0,0,1-5.857-5.864c0-3.605,2.295-5.863,6.093-5.863,2.886,0,5.014,1.405,5.69,3.9l-3.494.42a2.19,2.19,0,0,0-2.2-2.081c-1.131,0-2.246.584-2.246,3.621s1.115,3.62,2.246,3.62a2,2,0,0,0,2.211-1.646h-2.143Z" transform="translate(-506.392 -259.931)" fill="#050517"/></g></g></g></g></svg>