<svg xmlns="http://www.w3.org/2000/svg" viewBox="0 0 353.25 320.74"><title>laurel_black</title><path d="M0,166.06c22.71,1.15,44.53,18.9,53.11,41.07-17.63-4.24-34.88-12.23-45.85-29.38C5.19,173.59,2.44,170,0,166.07" transform="translate(0)" fill="#231f20"/><path d="M5.17,124.69c21.88,7.87,35.52,32.56,37.34,55.18-14.18-7.56-27.84-22-33-37.74-1.82-5.6-2.25-11.81-4.34-17.44" transform="translate(0)" fill="#231f20"/><path d="M6.69,81.57c19.45,12.92,32,34.41,29.94,58.81h-.86C16.27,126.06,7.12,105,6.69,81.57" transform="translate(0)" fill="#231f20"/><path d="M30.91,44h.71c11.53,19.26,19,45.29,9.59,68.29C26.44,94.26,19.83,66,30.91,44" transform="translate(0)" fill="#231f20"/><path d="M28.42,207.59C52.76,207.59,75,225,85.12,248c-22.63-4.7-47.23-15.78-56.7-40.41" transform="translate(0)" fill="#231f20"/><path d="M102.17,264.54c-3.61,2.37-8.45,3.18-12.92,3.86-21.67,3-40.54-4.8-57.71-14.45,22.26-12.49,51.76-3.89,70.63,10.59" transform="translate(0)" fill="#231f20"/><path d="M67.6,94.81,68.26,96c-.85,19-5.42,37.05-19.08,50.23-2.89,2.36-5.12,5.87-7.61,7.51-2.28-23.94,4.54-48,26-58.91" transform="translate(0)" fill="#231f20"/><path d="M57.06,10.62h.56c4.45,13,7.9,28,4.26,42.84C60.25,62.2,56.41,70,52.17,77.75c-9.74-19.62-9.48-49.47,4.89-67.13" transform="translate(0)" fill="#231f20"/><path d="M99.13,51.69c-7.61,16.11-20.32,34-36.86,41.93-4.7,1.75-9.41,3.37-13.74,6.28,6.32-22.65,26.21-46.8,50.6-48.21" transform="translate(0)" fill="#231f20"/><path d="M52.86,150.18c15.85,16.5,18,43.42,11.59,65.18-14.6-16.91-21.62-43.17-11.59-65.18" transform="translate(0)" fill="#231f20"/><path d="M93.8,7.17,100,1.33c.47,25-12.49,48.84-35,59.64l-.34-.53C68.6,40.11,75.55,19.94,93.85,7.17" transform="translate(0)" fill="#231f20"/><path d="M131.39,274.69c2.11,1,4.55,2,5.8,3.9-19.23,14.2-47.78,13.59-69.84,6.06,17.9-12.22,42.28-16.82,64-10" transform="translate(0)" fill="#231f20"/><path d="M109.45,257.91c0,1.53.5,3,.28,4.86C86.86,251,76.61,224.51,73.08,200.19c21.61,9.87,33.61,34.55,36.37,57.72" transform="translate(0)" fill="#231f20"/><path d="M173.69,290.6l2.5.59c24.11-9,59.44-13.86,79.28,7-19.25,7.65-43.66,3.13-61.41-5.19-3.41-1.4-7.66-3.49-11.07-1.12-.75.52-1.62.7-2,1.6,8.46,6.94,14.51,17.87,23.53,23.57a12.83,12.83,0,0,1-3.28,3.69c-13.55-4-12.55-21.68-25.85-25.84-4.57,1.24-8,5.83-11.31,9.33-4.19,4.73-7.47,10.37-11.55,14.94-2.51.7-4.37-1.37-6.36-2.75l1.19-1.83c7.4-7.32,15.74-14.09,23.35-20.88.53-.9-.33-1.69-1-2l-3.43.26c-18.41,8.67-40.68,20.41-61.36,9.22,17.48-17.13,46.77-20.66,68.77-10.59" transform="translate(0)" fill="#231f20"/><path d="M112.42,241.73c23.57,1.37,44,19.46,53.84,41.47-2.67.69-6.12-.32-8.87-.9-19.1-4.67-36.16-22.12-45.3-40Z" transform="translate(0)" fill="#231f20"/><path d="M240.91,239c-8.15,25.22-34.87,39.7-57.5,44.85,9.22-25,34.18-39.9,57.5-44.85" transform="translate(0)" fill="#231f20"/><path d="M283.56,273.87c2,1.17,4.29,1.79,5.46,3.47-20.88,6.9-49.4,13.87-69.17-.73,16.68-14,45.32-13.17,63.71-2.74" transform="translate(0)" fill="#231f20"/><path d="M239.61,4.12c20.05,8.19,34,29.52,37.2,50.87C256.93,48.31,241.69,25.64,239,4.68Z" transform="translate(0)" fill="#231f20"/><path d="M244.78,47.33c21.9,2.63,43,18.11,52.58,39.78-21.79-3-43.35-17-53-39.39Z" transform="translate(0)" fill="#231f20"/><path d="M275.69,201.49c1.43-.52,2.4-2.58,4-2.93a64.24,64.24,0,0,1-35.08,61l-.67-.19c2.36-23.14,11.16-45.92,31.74-57.9" transform="translate(0)" fill="#231f20"/><path d="M322.56,244.06c-17.87,19.13-43.87,21.87-69.18,17.68,17.48-19.48,44.07-22.89,69.18-17.65" transform="translate(0)" fill="#231f20"/><path d="M280.62,0c13.69,17.46,18.17,45.49,7.07,66.06-13.5-17.63-15-45.08-7.12-66" transform="translate(0)" fill="#231f20"/><path d="M330.22,195.15c-1.39,5.6-5,10.57-8.18,15.54-11.35,18.3-30.35,26.91-48.5,31.45,8-25.24,34-40.83,56.68-47" transform="translate(0)" fill="#231f20"/><path d="M277.2,86.15a59.44,59.44,0,0,1,33.32,57c-20.71-11.39-30.74-34.53-33.32-57" transform="translate(0)" fill="#231f20"/><path d="M297.88,138.77c5.88,10.77,6.87,26.46,4.13,39.88A93.51,93.51,0,0,1,286.61,212c-9.06-24.63-.13-52.28,11.27-73.21" transform="translate(0)" fill="#231f20"/><path d="M303.33,31.76h.53c14.36,18.93,15.25,49.75,5,71-3.82-5.84-6-13-8.42-19.75-4.9-15.54-4.87-37,2.86-51.25" transform="translate(0)" fill="#231f20"/><path d="M339.06,158.14c4.82-1.2,9.48-2.79,14.19-4.2-8.45,22.81-31,46-55.71,46.41,8.23-17.19,23.32-36,41.52-42.21" transform="translate(0)" fill="#231f20"/><path d="M321.45,130.78A83.09,83.09,0,0,1,340.69,113c1.51,25.63-12.26,47.41-32.71,61.85l-.39-.23c.1-16.64,4.52-31.47,13.81-43.84" transform="translate(0)" fill="#231f20"/><path d="M338.44,61.69c4.55,23-.32,47.55-18.13,63.16L315,129.76a77.79,77.79,0,0,1,7.45-49.7c3.55-7,9.7-13.27,15.94-18.38" transform="translate(0)" fill="#231f20"/></svg>