<?xml version="1.0" encoding="utf-8"?>
<!-- Generator: Adobe Illustrator 21.1.0, SVG Export Plug-In . SVG Version: 6.00 Build 0)  -->
<svg version="1.1" id="Layer_1" xmlns="http://www.w3.org/2000/svg" xmlns:xlink="http://www.w3.org/1999/xlink" x="0px" y="0px"
	 viewBox="0 0 389 533" style="enable-background:new 0 0 389 533;" xml:space="preserve">
<style type="text/css">
	.st0{fill:#FFFFFF;}
</style>
<g>
	<g>
		<path class="st0" d="M193,12C90.8,12,7.6,95.2,7.6,197.4c0,126.9,165.9,313.2,173,321c6.6,7.4,18.2,7.4,24.8,0
			c7.1-7.9,173-194.1,173-321C378.4,95.2,295.2,12,193,12z M193,481.7C137.2,415.4,41,284.5,41,197.4c0-83.8,68.2-152,152-152
			s152,68.2,152,152C345,284.5,248.9,415.4,193,481.7z"/>
	</g>
</g>
<g>
	<g>
		<path class="st0" d="M193,104.1c-51.4,0-93.3,41.9-93.3,93.3s41.9,93.3,93.3,93.3s93.3-41.9,93.3-93.3S244.4,104.1,193,104.1z
			 M193,257.3c-33,0-59.9-26.9-59.9-59.9s26.9-59.9,59.9-59.9s59.9,26.9,59.9,59.9S226,257.3,193,257.3z"/>
	</g>
</g>
</svg>
