<svg xmlns="http://www.w3.org/2000/svg" width="260" height="39.02" viewBox="0 0 260 39.02"><path d="M968.659,560.612H938.078v37.582h9.564V583.635h21.017a11.512,11.512,0,0,0,0-23.023Zm-3.318,17.267H947.455l.017-10.9h17.87a5.452,5.452,0,0,1,0,10.9Z" transform="translate(-938.078 -559.766)" fill="#050517"/><rect width="9.311" height="37.582" transform="translate(57.113 0.846)" fill="#050517"/><rect width="9.31" height="37.582" transform="translate(152.449 0.846)" fill="#050517"/><path d="M1013.667,570.621l-.084,27.573h-8.718V560.612h10.75l25.745,27.6.747-.008V560.612h8.719v37.582H1040.16l-25.689-27.573Z" transform="translate(-918.042 -559.766)" fill="#050517"/><path d="M1099.644,561h-12.189l-24.122,17.013v1.269l27.678,18.791h12.866l-28.538-18.766.02-1.35Z" transform="translate(-900.502 -559.648)" fill="#050517"/><path d="M1123.882,559.961c-14.563,0-26.367,8.735-26.367,19.51s11.8,19.509,26.367,19.509,26.365-8.733,26.365-19.509S1138.443,559.961,1123.882,559.961Zm0,33.349c-9.373,0-16.972-6.2-16.972-13.839s7.6-13.84,16.972-13.84,16.971,6.2,16.971,13.84S1133.254,593.31,1123.882,593.31Z" transform="translate(-890.247 -559.961)" fill="#050517"/></svg>