<svg xmlns="http://www.w3.org/2000/svg" width="257.189" height="20.497" viewBox="0 0 257.189 20.497"><path d="M647.424,575.915c.189-.179.377-.512.567-.513,2.914-.032,5.828-.023,8.792-.023v.739c-2.631.357-2.8.55-2.8,3.241,0,1.606,0,3.21,0,4.887h9.751c0-2.2.03-4.379-.017-6.557a1.327,1.327,0,0,0-1.283-1.312c-.481-.071-.959-.143-1.483-.222-.179-.49-.121-.784.514-.783,2.7.009,5.41-.009,8.116.027.229,0,.454.325.787.58a3.022,3.022,0,0,1-.437.2c-2.349.219-2.619.5-2.623,2.856q-.012,6.2,0,12.4a7.89,7.89,0,0,0,.042.818c.133,1.328.554,1.73,1.884,1.861.426.041,1.085-.136.86.778h-9.138l-.18-.233a2.7,2.7,0,0,1,.657-.537,4.453,4.453,0,0,1,.984-.145,1.4,1.4,0,0,0,1.313-1.49c.028-2.3.009-4.611.009-7h-9.755c0,.817,0,1.625,0,2.433,0,1.247-.03,2.495.012,3.74.064,1.89.338,2.187,2.218,2.407.58.067.757.265.5.89h-5.976c-.912,0-1.825.018-2.735-.022-.161-.006-.31-.253-.464-.388a2.094,2.094,0,0,1,.446-.423,1.538,1.538,0,0,1,.54-.04c1.35-.1,1.9-.593,1.9-1.932.03-4.71.019-9.423.018-14.135a1.512,1.512,0,0,0-1.373-1.647c-.476-.084-.954-.157-1.431-.237C647.571,576.064,647.5,575.991,647.424,575.915Zm3.094,18.195c.573.1.962-.341,1.111-.968a8.361,8.361,0,0,0,.215-1.894q.027-5.968,0-11.939a15.224,15.224,0,0,0-.144-2c-.1-.763-.557-1.141-1.166-1.087a11.266,11.266,0,0,1,.414,2.094q.056,6.7,0,13.4A14.253,14.253,0,0,1,650.518,594.11Zm13.346-17.9a13.054,13.054,0,0,1,.409,2.24q.058,6.742,0,13.483a12.02,12.02,0,0,1-.419,2.189c-.136-.051-.078-.009-.024-.013.945-.062,1.278-.5,1.282-1.805q.017-6.923,0-13.848a7.1,7.1,0,0,0-.107-1.178C664.879,576.544,664.472,576.149,663.864,576.207Z" transform="translate(-533.765 -574.904)" fill="#050517" fill-rule="evenodd"/><path d="M724.369,594.16l.5-.046c1.808-.138,2.189-.545,2.19-2.392q.006-6.475,0-12.948c0-2.025-.194-2.235-2.205-2.587-.255-.042-.462-.346-.691-.529.053-.089.107-.177.158-.266.234-.021.466-.06.7-.06,3.648,0,7.294-.024,10.942,0a9.625,9.625,0,0,1,9.71,7.513,9.47,9.47,0,0,1-8.458,11.939c-3.194.3-6.434.145-9.651.189-.882.013-1.764-.019-2.645.01C724.334,595,724.137,594.788,724.369,594.16Zm6.308-9.007h-.018c0,2.342-.021,4.682.008,7.024.015,1.182.43,1.741,1.458,1.865a9.379,9.379,0,0,0,4.851-.441,7.364,7.364,0,0,0,4.673-5.532,13.386,13.386,0,0,0-.071-5.791c-.991-4.161-4.174-6.327-8.891-6.1-1.4.067-1.978.616-2,2.041C730.651,580.532,730.677,582.844,730.677,585.154Zm-3.5-8.881a11.371,11.371,0,0,1,.385,2.042q.052,6.749,0,13.5a14.874,14.874,0,0,1-.333,2.2c.887-.152,1.227-.631,1.229-2.029q.012-6.566-.005-13.133a9.035,9.035,0,0,0-.153-1.448A1.189,1.189,0,0,0,727.176,576.273Zm10.78,17.615a5.774,5.774,0,0,0,4.377-3.588,12.78,12.78,0,0,0,.118-9.762,6.288,6.288,0,0,0-2.932-3.479,11.8,11.8,0,0,0-1.219-.5A10.7,10.7,0,0,1,737.956,593.888Z" transform="translate(-511.82 -574.919)" fill="#050517" fill-rule="evenodd"/><path d="M688.518,591.507c.606.062.814.34.469.842a13.334,13.334,0,0,1-1.614,2.174,3.222,3.222,0,0,1-4.406.094,23.944,23.944,0,0,1-2.007-2.1c-1.017.671-2.042,1.433-3.145,2.051a6.06,6.06,0,0,1-3.862.8,4.609,4.609,0,0,1-3.916-3.133,4.5,4.5,0,0,1,.981-4.83c1.1-1.2,2.351-2.265,3.536-3.391-.482-.657-1.026-1.346-1.511-2.074a2.809,2.809,0,0,1,.071-3.477,8.666,8.666,0,0,1,3.805-3.157,3.384,3.384,0,0,1,4.6,2.761,2.546,2.546,0,0,1-.9,2.283c-.838.782-1.739,1.494-2.572,2.2,1.547,2.037,3.084,4.058,4.734,6.228.6-1.075,1.256-2.063,1.721-3.134a1.632,1.632,0,0,0-1.254-2.42c-.224-.064-.4-.306-.6-.467.23-.122.459-.347.691-.351,1.944-.028,3.886-.015,6.129-.015-.23.39-.315.692-.514.85A18.246,18.246,0,0,0,686.4,585.2a40.185,40.185,0,0,0-2.887,3.975.884.884,0,0,0,.005.786,21.95,21.95,0,0,0,1.553,2.247c.99,1.234,2.028,1.2,2.985-.052C688.221,591.946,688.369,591.719,688.518,591.507Zm-7.987-.033-5.128-6.79c-1.52,1.366-2.931,2.574-2.6,4.685a4.4,4.4,0,0,0,3.336,3.8C677.867,593.643,679.257,592.9,680.531,591.474Zm-7.347-12.114a1.851,1.851,0,0,0,.082,1.944,8.549,8.549,0,0,0,1,1.413,80.051,80.051,0,0,1,7.426,9.686,7.944,7.944,0,0,0,1.948,2.009,2.391,2.391,0,0,0,3.061-.1,9.764,9.764,0,0,1-1.543-.141,4.84,4.84,0,0,1-2.58-2.059c-2.564-3.316-5.154-6.611-7.684-9.951A30.469,30.469,0,0,1,673.184,579.36Zm4.089,2.592c2.18-1.458,2.182-2.661.274-4.442a2.243,2.243,0,0,0-.216-.167,1.462,1.462,0,0,0-2.06.046,1.368,1.368,0,0,0-.184,2.095C675.751,580.344,676.527,581.118,677.274,581.953Zm-2.2,12.9c-3.516-1.317-4.548-3.346-3.891-6.656a3.746,3.746,0,0,0-.6,4.051A4.531,4.531,0,0,0,675.071,594.852Zm4.484-15.152a1.708,1.708,0,0,0-.248-2.338,2.106,2.106,0,0,0-2.559-.878A4.831,4.831,0,0,1,679.555,579.7Zm5.1,3.526c.234.484.456.945.588,1.215.409-.388.865-.822,1.282-1.215Z" transform="translate(-527.389 -574.99)" fill="#050517" fill-rule="evenodd"/><path d="M715.454,575.043c6,0,10.432,4.287,10.43,10.079,0,5.885-4.638,10.3-10.811,10.3-5.946-.005-10-4.219-9.99-10.4C705.092,579.051,709.258,575.042,715.454,575.043Zm-6.754,8.806c.075.023.149.045.225.067.109,2.848.514,5.622,2.2,8.038a5.433,5.433,0,0,0,5.362,2.582,5.138,5.138,0,0,0,4.412-3.481,15.6,15.6,0,0,0,.945-4.772,11.811,11.811,0,0,0-2.353-8.041c-2.864-3.608-7.824-3.05-9.66,1.164A27.235,27.235,0,0,0,708.7,583.849Zm12.043,8.625c2.163-1.534,3.03-5.839,2.142-9.972-.588-2.744-2.6-5.728-4.409-5.95C722.721,579.6,723.6,588.189,720.743,592.474Zm-11.682-14.859c-3.234,2.74-4.043,6.271-3.188,10.253a8.139,8.139,0,0,0,4.68,5.9,10.672,10.672,0,0,1-4.138-7.714A11.083,11.083,0,0,1,709.062,577.615Z" transform="translate(-517.277 -574.998)" fill="#050517" fill-rule="evenodd"/><path d="M602.235,575.09c6.088-.048,10.518,4.181,10.531,10.048a10.257,10.257,0,0,1-10.365,10.27c-6.144.049-10.371-4.051-10.408-10.095C591.956,579.218,596.045,575.136,602.235,575.09Zm6.813,11.149c-.085-.022-.168-.044-.255-.068a14.215,14.215,0,0,0-1.471-6.512,7.025,7.025,0,0,0-3.144-3.193c-3.185-1.542-6.593.121-7.793,3.809a13.819,13.819,0,0,0-.275,6.494,11.656,11.656,0,0,0,2.083,5.382c2.753,3.644,7.757,3.158,9.587-1.026A30.666,30.666,0,0,0,609.048,586.239Zm-11.327,7.686a10.627,10.627,0,0,1-4.362-7.861,10.976,10.976,0,0,1,2.842-8.6c-3.041,2.349-4.026,5.528-3.615,9.18A8.672,8.672,0,0,0,597.721,593.925Zm7.641-17.466c4.636,4.686,4.888,10.106,2.477,15.941C611.621,589.216,610.745,578.174,605.362,576.46Z" transform="translate(-549.615 -574.985)" fill="#050517" fill-rule="evenodd"/><path d="M743.105,594.961c.26-.387.364-.746.57-.819a4.693,4.693,0,0,0,2.744-2.887c1.694-4.191,3.324-8.406,4.948-12.625a.945.945,0,0,0-.183-.853,11.186,11.186,0,0,0-1.609-.921c.032-.1.048-.516.19-.563,1.2-.405,2.416-.763,3.641-1.093.613-.165.88.19,1.1.758,2.006,5.176,4.055,10.336,6.075,15.507.48,1.229,1.06,2.317,2.486,2.681.194.05.3.453.525.827h-8.32c-.219-.543-.089-.76.5-.864,1.544-.265,1.79-.738,1.237-2.186-.477-1.247-.943-2.5-1.487-3.719a1.144,1.144,0,0,0-.826-.576c-1.76-.053-3.525-.04-5.289-.01a.921.921,0,0,0-.715.351,20.623,20.623,0,0,0-1.1,3.171c-.337,1.519.293,2.454,1.758,3.03.21.084.332.4.647.792Zm11.831-8.315c-.963-2.432-1.9-4.78-2.9-7.316-1,2.571-1.917,4.906-2.86,7.316Zm2.407,7.446c.958-.027,1.4-.487,1.269-1.339a7.561,7.561,0,0,0-.418-1.488c-1.089-2.8-2.2-5.594-3.3-8.39-.635-1.61-1.249-3.229-1.913-4.825-.327-.783-.838-1.384-1.722-1.236.4.707.855,1.38,1.187,2.108.437.966.781,1.975,1.169,2.963,1.272,3.252,2.551,6.5,3.813,9.756C757.74,592.452,758.1,593.283,757.343,594.092Zm-10.889-1.573c-.419.517-.838,1.031-1.3,1.6h1.929C746.869,593.579,746.676,593.089,746.454,592.519Z" transform="translate(-506.405 -574.965)" fill="#050517" fill-rule="evenodd"/><path d="M703.028,580.891c-.769.271-1.042-.062-1.378-.539a23.058,23.058,0,0,0-2.641-3.342,4.393,4.393,0,0,0-5.537-.554,3.324,3.324,0,0,0-1.487,3.224,2.556,2.556,0,0,0,2.051,2.3c1.811.5,3.664.849,5.5,1.249,2.516.549,4.348,1.889,4.975,4.487a6.325,6.325,0,0,1-7.945,7.453c-.93-.28-1.847-.6-2.779-.876a2.287,2.287,0,0,0-2.141.446,5.222,5.222,0,0,1-1.04.457v-7.146c.678-.261.975.049,1.2.661a10.724,10.724,0,0,0,2.78,4.33,5.244,5.244,0,0,0,5.653,1.124,3.677,3.677,0,0,0,2.258-3.632,3.343,3.343,0,0,0-2.49-3.334c-1.564-.472-3.194-.719-4.794-1.069-2.356-.514-4.191-1.638-4.768-4.175a5.565,5.565,0,0,1,6.331-6.843,18.151,18.151,0,0,0,1.98.3c.8.031,1.614-.055,2.42-.1.383-.023.765-.067,1.258-.109C702.637,577.152,702.833,579.011,703.028,580.891Zm-12.07-.206a4.614,4.614,0,0,0,3.938,4.893c1.6.34,3.23.57,4.818.957a3.88,3.88,0,0,1,3.149,2.947,12.877,12.877,0,0,1,.028,2.573c.2-.427.343-.687.436-.964a3.859,3.859,0,0,0-2.684-5.1,32.862,32.862,0,0,0-4.776-1.111C693.393,584.437,691.55,583.329,690.958,580.685Zm1.616,12.64c-.476-.719-.941-1.421-1.452-2.19v2.725C691.635,593.672,692.1,593.5,692.575,593.324Zm6.889-16.827c.656.752,1.21,1.389,1.763,2.027l.135-.078c-.111-.646-.221-1.291-.333-1.948Z" transform="translate(-521.507 -574.998)" fill="#050517" fill-rule="evenodd"/><path d="M559.3,595.137v-7.1c.621-.22.968-.066,1.2.6a10.791,10.791,0,0,0,2.819,4.41,5.232,5.232,0,0,0,5.569,1.124,3.692,3.692,0,0,0,2.315-3.6,3.387,3.387,0,0,0-2.463-3.363c-1.259-.417-2.595-.6-3.894-.9a18.082,18.082,0,0,1-2.379-.608,5.161,5.161,0,0,1-3.295-6.158,5.33,5.33,0,0,1,5.608-4.449,13.339,13.339,0,0,1,1.628.19,6.672,6.672,0,0,0,3.682.027,3.433,3.433,0,0,1,1.035-.015c.2,1.865.4,3.718.6,5.594-.66.262-.993.083-1.364-.478a21.96,21.96,0,0,0-2.482-3.239,4.526,4.526,0,0,0-5.449-.836,3.338,3.338,0,0,0-1.731,3.363,2.67,2.67,0,0,0,2.21,2.374c1.726.467,3.491.792,5.245,1.148,3.086.629,5.083,2.744,5.173,5.516a6.182,6.182,0,0,1-4.591,6.427,6.33,6.33,0,0,1-3.77-.093c-.774-.266-1.556-.512-2.339-.751a2.313,2.313,0,0,0-2.3.45A3.47,3.47,0,0,1,559.3,595.137Zm.21-14.58a11.594,11.594,0,0,0,.247,1.577c.674,2.254,2.365,3.232,4.557,3.622a34.426,34.426,0,0,1,4.781,1.053,3.776,3.776,0,0,1,2.558,4.394c-.03.211-.072.421-.143.829a4.826,4.826,0,0,0,.327-.458,3.916,3.916,0,0,0-2.521-5.593,39.512,39.512,0,0,0-5.045-1.135A5.556,5.556,0,0,1,559.511,580.557Zm1.784,12.758-1.456-2.205v2.749Zm6.917-16.738,1.706,1.989.151-.058c-.121-.68-.242-1.359-.36-2.021Z" transform="translate(-559.038 -574.985)" fill="#050517" fill-rule="evenodd"/><path d="M647.992,590.459c.26.131.5.247.939.471-.766.8-1.409,1.595-2.167,2.253-4.53,3.929-14.437,3.271-16.544-5.146-2.059-8.236,4.969-14.553,12.44-12.54a14.321,14.321,0,0,0,2.5.444,3.264,3.264,0,0,0,1.2-.327c.485-.169.959-.368,1.571-.6v6.324c-.544.2-.813-.008-1.13-.5a18.411,18.411,0,0,0-2.436-3.266,5.481,5.481,0,0,0-8.748,1.125,11.912,11.912,0,0,0-.247,11.946c2.355,4.449,7.9,4.891,11.521,1.071C647.26,591.318,647.6,590.9,647.992,590.459Zm-10.68,4.007c-3.521-1.727-5.771-4.408-6.076-8.374-.3-3.9,1.4-6.988,4.458-9.381-3.522,1.214-5.739,5.513-5.239,9.975C630.883,590.511,634.051,594.136,637.312,594.466Zm8.982-16.158c-.035-.568-.071-1.16-.108-1.781l-1.421.2C645.245,577.224,645.753,577.747,646.294,578.308Z" transform="translate(-538.788 -575.008)" fill="#050517" fill-rule="evenodd"/><path d="M591.893,581.543c-.3-.239-.709-.421-.886-.732a11.491,11.491,0,0,0-3.081-3.788,5.573,5.573,0,0,0-7.513.748c-2.989,3.37-3.016,10.741-.053,14.134a6.652,6.652,0,0,0,8.741,1.3,31.536,31.536,0,0,0,3.225-2.686l.655.373a10.137,10.137,0,0,1-7.349,4.492,9.968,9.968,0,0,1-11.375-7.8,10.081,10.081,0,0,1,12.309-12.168c.561.134,1.108.321,1.673.439a3.016,3.016,0,0,0,2.524-.395,4.4,4.4,0,0,1,1.345-.382v6.206C592.035,581.367,591.963,581.454,591.893,581.543Zm-9.835,13.106c-3.8-1.664-6.286-4.3-6.635-8.489-.341-4.076,1.445-7.215,4.676-9.627-3.871,1.447-6.074,5.729-5.425,10.388C575.219,590.842,578.512,594.329,582.058,594.649Zm8.284-16.5V576.5l-1.587.24C589.316,577.235,589.851,577.708,590.342,578.145Z" transform="translate(-554.764 -574.99)" fill="#050517" fill-rule="evenodd"/><path d="M616.288,594.917c-.221-.586-.059-.781.541-.818,2.111-.129,2.49-.562,2.49-2.7V576.211a7.156,7.156,0,0,0-5.789,2.244,12.105,12.105,0,0,1-1.013,1.169,5.646,5.646,0,0,1-1.2.572c.347-1.672.6-3.063.956-4.429.05-.192.562-.374.86-.374,3.738-.026,7.477-.017,11.214-.017,1.641,0,3.283.014,4.923-.009.513-.008.755.138.851.682.23,1.278.539,2.546.817,3.817-.721.324-1.1.036-1.456-.531a6.543,6.543,0,0,0-6.661-3.079v.862q0,7.156,0,14.315c0,2.031.409,2.492,2.469,2.663.6.049.752.247.527.822ZM619.835,576v1.278c0,4.74.021,9.48-.019,14.22a17.509,17.509,0,0,1-.4,2.605c.814.063,1.161-.562,1.168-1.354.042-5.132.046-10.264.058-15.4a1.063,1.063,0,0,0-.093-.534A7.325,7.325,0,0,0,619.835,576Zm6.952.238c.824.6,1.578,1.148,2.443,1.78-.188-.669-.338-1.209-.5-1.78Zm-12.317.017c-1.939-.166-2.051-.071-2.055,1.688C613.08,577.394,613.74,576.854,614.47,576.253Z" transform="translate(-544.09 -574.905)" fill="#050517" fill-rule="evenodd"/></svg>