<svg xmlns="http://www.w3.org/2000/svg" width="463" height="148.449" viewBox="0 0 463 148.449"><g transform="translate(-554 -243.797)"><path d="M674.765,269.876H651.9v62.189l-37.314-62.189-37.714,62.589V291.943l37.714-21.665V243.8l-37.714,21.666h0L554,278.7h0V357.34h0v8.425h28.487l1.6-2.406,4.413-8.025h43.733l-18.056,10.431v26.481L651.9,370.581l22.869-13.24V278.7h0v-1.2h0Zm-73.02,62.991L614.181,310.8l12.438,22.067Z" fill="#fff"/><g transform="translate(697.234 269.876)"><g transform="translate(0.4 62.991)"><path d="M664.854,312.619H654.823V306.6h27.685v6.018H672.075V338.7h-7.221Z" transform="translate(-654.823 -306.199)" fill="#fff"/><path d="M696.153,331.876H681.307L678.5,338.7h-7.623l14.444-32.1h7.221l14.444,32.1h-7.623Zm-2.408-5.617-5.216-12.437-5.216,12.437Z" transform="translate(-648.007 -306.199)" fill="#fff"/><path d="M700.073,337.9a9.823,9.823,0,0,1-4.414-3.611l4.013-4.815q2.406,3.611,6.018,3.611c3.21,0,4.413-1.6,4.413-5.216V312.619H698.869V306.6h18.456v20.862c0,4.013-.8,6.821-2.808,8.827s-4.815,2.808-8.425,2.808A16.113,16.113,0,0,1,700.073,337.9Z" transform="translate(-637.483 -306.199)" fill="#fff"/><path d="M754.4,306.6v32.1h-7.221v-13.24H732.733V338.7h-7.221V306.6h7.221v12.437h14.444V306.6Z" transform="translate(-624.807 -306.199)" fill="#fff"/><path d="M757.714,337.212a15.493,15.493,0,0,1-6.419-6.018,15.948,15.948,0,0,1,0-16.852,18.6,18.6,0,0,1,6.419-6.018,16.834,16.834,0,0,1,8.827-2.006,20.425,20.425,0,0,1,8.827,2.006,15.5,15.5,0,0,1,6.419,6.018,15.948,15.948,0,0,1,0,16.852,18.572,18.572,0,0,1-6.419,6.018,20.425,20.425,0,0,1-17.654,0Zm14.042-5.616a7.878,7.878,0,0,0,3.611-3.611,11.9,11.9,0,0,0,0-10.431,7.865,7.865,0,0,0-3.611-3.611,11.9,11.9,0,0,0-10.431,0,7.865,7.865,0,0,0-3.611,3.611,11.9,11.9,0,0,0,0,10.431,7.878,7.878,0,0,0,3.611,3.611,11.108,11.108,0,0,0,5.216,1.2C768.547,332.8,770.152,332.8,771.756,331.6Z" transform="translate(-614.882 -306.319)" fill="#fff"/><path d="M777.05,306.6h7.223v26.078h16.048V338.7H777.05Z" transform="translate(-602.923 -306.199)" fill="#fff"/><path d="M796.2,306.6h14.444a22.285,22.285,0,0,1,9.227,2.006,11.8,11.8,0,0,1,6.019,5.616,15.955,15.955,0,0,1,0,16.852,16.091,16.091,0,0,1-6.019,5.617,22.285,22.285,0,0,1-9.227,2.006H796.2Zm14.444,26.078c3.21,0,5.616-.8,7.623-2.808,2.006-1.606,2.808-4.012,2.808-7.221s-.8-5.617-2.808-7.223a11.782,11.782,0,0,0-7.623-2.808h-6.821v19.66h6.821Z" transform="translate(-594.792 -306.199)" fill="#fff"/><path d="M822.674,306.6H829.9v32.1h-7.221Z" transform="translate(-583.551 -306.199)" fill="#fff"/><path d="M862.665,306.6v32.1h-6.018L840.6,319.44V338.7h-7.221V306.6h6.018l16.05,19.258V306.6Z" transform="translate(-579.007 -306.199)" fill="#fff"/><path d="M880.7,322.248h6.821v12.839a21.261,21.261,0,0,1-6.019,3.21,20.2,20.2,0,0,1-15.646-.8,15.486,15.486,0,0,1-6.419-6.018,15.948,15.948,0,0,1,0-16.852,18.547,18.547,0,0,1,6.419-6.018c2.808-1.606,5.617-2.006,9.227-2.006a16.278,16.278,0,0,1,7.623,1.6,14.4,14.4,0,0,1,5.617,4.012l-4.815,4.413a11.543,11.543,0,0,0-8.425-3.61,12.824,12.824,0,0,0-5.617,1.2,7.882,7.882,0,0,0-3.61,3.611,11.9,11.9,0,0,0,0,10.431,7.869,7.869,0,0,0,3.61,3.611,11.114,11.114,0,0,0,5.217,1.2,12.813,12.813,0,0,0,5.616-1.2v-9.629Z" transform="translate(-568.961 -306.199)" fill="#fff"/></g><path d="M683.429,289.668v5.616h-16.45a29.856,29.856,0,0,1-7.221-.8,8.782,8.782,0,0,1-4.013-3.611c-.8-1.6-1.2-4.012-1.2-7.623a16.772,16.772,0,0,1,1.2-7.221,7.189,7.189,0,0,1,4.013-3.611c2.006,0,4.414-.4,7.623-.4H673.4c2.408,0,4.012.4,5.216.4v17.254Zm-21.665-2.007a4.839,4.839,0,0,0,2.006,2.007,8.925,8.925,0,0,0,3.611.4h4.814V278.032c-1.6,0-3.21-.4-4.814-.4a12.4,12.4,0,0,0-4.013.4,4.015,4.015,0,0,0-2.006,1.606,8.021,8.021,0,0,0-.8,3.61C660.961,285.254,660.961,286.458,661.763,287.661Zm.4-25.276h4.814V268h-4.814Zm6.82,0H673.8V268h-4.815Z" transform="translate(-654.542 -261.983)" fill="#fff"/><path d="M714.539,289.788V295.4h-39.72v-5.616h6.018V272.534h6.019v7.223a40.107,40.107,0,0,1,3.61-4.012,14.4,14.4,0,0,1,4.013-2.809,23.64,23.64,0,0,1,5.617-.8q6.017,0,8.425,3.611a14.835,14.835,0,0,1,2.406,8.425v6.018h3.611Zm-22.468-8.827a33.365,33.365,0,0,0-5.216,7.221v2.006h17.252v-4.814c0-2.007-.4-4.013-1.606-5.217a4.705,4.705,0,0,0-4.413-2.006C696.485,277.751,694.077,278.553,692.071,280.961Zm2.006-18.858h5.617v6.019h-5.617Z" transform="translate(-645.932 -262.103)" fill="#fff"/><path d="M715.94,269.425V292.7H702.7v-5.617h6.821V269.425Zm-6.019,26.883h5.617v6.018h-5.617Z" transform="translate(-634.093 -258.994)" fill="#fff"/><path d="M727.333,289.429v5.616H716.5v-32.1h6.018v26.481Z" transform="translate(-628.234 -261.744)" fill="#fff"/><path d="M754.477,289.668v5.616H724.386v-5.616H729.2a31.261,31.261,0,0,1-.8-6.421,14.074,14.074,0,0,1,1.2-6.419,8.783,8.783,0,0,1,4.012-3.61,16.747,16.747,0,0,1,7.221-1.2,36.794,36.794,0,0,1,6.821.4l2.408.4v16.852Zm-20.061-27.283h4.815V268h-4.815Zm.4,25.276a5.709,5.709,0,0,0,.8,2.408h8.025V278.433h-3.21a8.894,8.894,0,0,0-3.611.4,3.992,3.992,0,0,0-1.6,2.006,11.161,11.161,0,0,0-.4,4.012C734.415,285.655,734.817,286.858,734.817,287.661Zm6.821-25.276h4.814V268h-4.814Z" transform="translate(-624.885 -261.983)" fill="#fff"/><path d="M757.263,262.948v32.5H745.226v-5.617h5.617V262.948Z" transform="translate(-616.036 -261.744)" fill="#fff"/><path d="M759.026,262.948h6.018v32.5h-6.018Z" transform="translate(-610.176 -261.744)" fill="#fff"/><path d="M782.02,292.815a4.9,4.9,0,0,0-1.2,3.611,3.909,3.909,0,0,0,1.6,3.61,6.411,6.411,0,0,0,4.413,1.605,13.811,13.811,0,0,0,3.611-.4c1.6-.4,3.21-.4,4.814-.8l.8,4.814c-1.606.4-3.211.8-5.217,1.2a24.639,24.639,0,0,1-5.216.4c-3.21,0-6.018-.8-8.023-2.808s-2.809-4.815-2.809-8.025.8-5.617,2.408-7.221,4.012-2.408,7.221-2.408a11.1,11.1,0,0,1,3.611.4c1.2.4,2.408.4,3.21.8v-8.827a4.678,4.678,0,0,0-.8-2.808c-.4-.8-1.605-.8-2.809-.8a38.957,38.957,0,0,0-7.221.4h-2.408v-4.012c1.606-.4,3.611-.8,5.617-1.2a8.952,8.952,0,0,1,5.216-1.2,10.2,10.2,0,0,1,6.419,2.006,7.936,7.936,0,0,1,2.006,5.617v16.048h-6.018a25.309,25.309,0,0,0-2.808-.8c-1.2,0-2.007-.4-2.809-.4A4.9,4.9,0,0,0,782.02,292.815Zm3.21,1.2h4.814v5.617h-4.814Z" transform="translate(-603.48 -259.113)" fill="#fff"/><path d="M805.906,289.429v5.616H795.075v-32.1h6.018v26.481Z" transform="translate(-594.87 -261.744)" fill="#fff"/><path d="M815.637,272.414v23.271H802.4v-5.617h7.221V272.414Zm-8.827-10.029h4.814V268H806.81Zm7.221,0h4.815V268h-4.815Z" transform="translate(-591.76 -261.983)" fill="#fff"/></g></g></svg>