<svg xmlns="http://www.w3.org/2000/svg" width="257.189" height="126.489" viewBox="0 0 257.189 126.489"><g transform="translate(0 0)"><g transform="translate(0 80.435)"><path d="M647.424,575.915c.189-.179.377-.512.567-.513,2.914-.032,5.828-.023,8.792-.023v.739c-2.631.357-2.8.55-2.8,3.241,0,1.606,0,3.21,0,4.887h9.751c0-2.2.03-4.379-.017-6.557a1.327,1.327,0,0,0-1.283-1.312c-.481-.071-.959-.143-1.483-.222-.179-.49-.121-.784.514-.783,2.7.009,5.41-.009,8.116.027.229,0,.454.325.787.58a3.022,3.022,0,0,1-.437.2c-2.349.219-2.619.5-2.623,2.856q-.012,6.2,0,12.4a7.89,7.89,0,0,0,.042.818c.133,1.328.554,1.73,1.884,1.861.426.041,1.085-.136.86.778h-9.138l-.18-.233a2.7,2.7,0,0,1,.657-.537,4.453,4.453,0,0,1,.984-.145,1.4,1.4,0,0,0,1.313-1.49c.028-2.3.009-4.611.009-7h-9.755c0,.817,0,1.625,0,2.433,0,1.247-.03,2.495.012,3.74.064,1.89.338,2.187,2.218,2.407.58.067.757.265.5.89h-5.976c-.912,0-1.825.018-2.735-.022-.161-.006-.31-.253-.464-.388a2.094,2.094,0,0,1,.446-.423,1.538,1.538,0,0,1,.54-.04c1.35-.1,1.9-.593,1.9-1.932.03-4.71.019-9.423.018-14.135a1.512,1.512,0,0,0-1.373-1.647c-.476-.084-.954-.157-1.431-.237C647.571,576.064,647.5,575.991,647.424,575.915Zm3.094,18.195c.573.1.962-.341,1.111-.968a8.361,8.361,0,0,0,.215-1.894q.027-5.968,0-11.939a15.224,15.224,0,0,0-.144-2c-.1-.763-.557-1.141-1.166-1.087a11.266,11.266,0,0,1,.414,2.094q.056,6.7,0,13.4A14.253,14.253,0,0,1,650.518,594.11Zm13.346-17.9a13.054,13.054,0,0,1,.409,2.24q.058,6.742,0,13.483a12.02,12.02,0,0,1-.419,2.189c-.136-.051-.078-.009-.024-.013.945-.062,1.278-.5,1.282-1.805q.017-6.923,0-13.848a7.1,7.1,0,0,0-.107-1.178C664.879,576.544,664.472,576.149,663.864,576.207Z" transform="translate(-533.765 -574.904)" fill="#050517" fill-rule="evenodd"/><path d="M724.369,594.16l.5-.046c1.808-.138,2.189-.545,2.19-2.392q.006-6.475,0-12.948c0-2.025-.194-2.235-2.205-2.587-.255-.042-.462-.346-.691-.529.053-.089.107-.177.158-.266.234-.021.466-.06.7-.06,3.648,0,7.294-.024,10.942,0a9.625,9.625,0,0,1,9.71,7.513,9.47,9.47,0,0,1-8.458,11.939c-3.194.3-6.434.145-9.651.189-.882.013-1.764-.019-2.645.01C724.334,595,724.137,594.788,724.369,594.16Zm6.308-9.007h-.018c0,2.342-.021,4.682.008,7.024.015,1.182.43,1.741,1.458,1.865a9.379,9.379,0,0,0,4.851-.441,7.364,7.364,0,0,0,4.673-5.532,13.386,13.386,0,0,0-.071-5.791c-.991-4.161-4.174-6.327-8.891-6.1-1.4.067-1.978.616-2,2.041C730.651,580.532,730.677,582.844,730.677,585.154Zm-3.5-8.881a11.371,11.371,0,0,1,.385,2.042q.052,6.749,0,13.5a14.874,14.874,0,0,1-.333,2.2c.887-.152,1.227-.631,1.229-2.029q.012-6.566-.005-13.133a9.035,9.035,0,0,0-.153-1.448A1.189,1.189,0,0,0,727.176,576.273Zm10.78,17.615a5.774,5.774,0,0,0,4.377-3.588,12.78,12.78,0,0,0,.118-9.762,6.288,6.288,0,0,0-2.932-3.479,11.8,11.8,0,0,0-1.219-.5A10.7,10.7,0,0,1,737.956,593.888Z" transform="translate(-511.82 -574.919)" fill="#050517" fill-rule="evenodd"/><path d="M688.518,591.507c.606.062.814.34.469.842a13.334,13.334,0,0,1-1.614,2.174,3.222,3.222,0,0,1-4.406.094,23.944,23.944,0,0,1-2.007-2.1c-1.017.671-2.042,1.433-3.145,2.051a6.06,6.06,0,0,1-3.862.8,4.609,4.609,0,0,1-3.916-3.133,4.5,4.5,0,0,1,.981-4.83c1.1-1.2,2.351-2.265,3.536-3.391-.482-.657-1.026-1.346-1.511-2.074a2.809,2.809,0,0,1,.071-3.477,8.666,8.666,0,0,1,3.805-3.157,3.384,3.384,0,0,1,4.6,2.761,2.546,2.546,0,0,1-.9,2.283c-.838.782-1.739,1.494-2.572,2.2,1.547,2.037,3.084,4.058,4.734,6.228.6-1.075,1.256-2.063,1.721-3.134a1.632,1.632,0,0,0-1.254-2.42c-.224-.064-.4-.306-.6-.467.23-.122.459-.347.691-.351,1.944-.028,3.886-.015,6.129-.015-.23.39-.315.692-.514.85A18.246,18.246,0,0,0,686.4,585.2a40.185,40.185,0,0,0-2.887,3.975.884.884,0,0,0,.005.786,21.95,21.95,0,0,0,1.553,2.247c.99,1.234,2.028,1.2,2.985-.052C688.221,591.946,688.369,591.719,688.518,591.507Zm-7.987-.033-5.128-6.79c-1.52,1.366-2.931,2.574-2.6,4.685a4.4,4.4,0,0,0,3.336,3.8C677.867,593.643,679.257,592.9,680.531,591.474Zm-7.347-12.114a1.851,1.851,0,0,0,.082,1.944,8.549,8.549,0,0,0,1,1.413,80.051,80.051,0,0,1,7.426,9.686,7.944,7.944,0,0,0,1.948,2.009,2.391,2.391,0,0,0,3.061-.1,9.764,9.764,0,0,1-1.543-.141,4.84,4.84,0,0,1-2.58-2.059c-2.564-3.316-5.154-6.611-7.684-9.951A30.469,30.469,0,0,1,673.184,579.36Zm4.089,2.592c2.18-1.458,2.182-2.661.274-4.442a2.243,2.243,0,0,0-.216-.167,1.462,1.462,0,0,0-2.06.046,1.368,1.368,0,0,0-.184,2.095C675.751,580.344,676.527,581.118,677.274,581.953Zm-2.2,12.9c-3.516-1.317-4.548-3.346-3.891-6.656a3.746,3.746,0,0,0-.6,4.051A4.531,4.531,0,0,0,675.071,594.852Zm4.484-15.152a1.708,1.708,0,0,0-.248-2.338,2.106,2.106,0,0,0-2.559-.878A4.831,4.831,0,0,1,679.555,579.7Zm5.1,3.526c.234.484.456.945.588,1.215.409-.388.865-.822,1.282-1.215Z" transform="translate(-527.389 -574.99)" fill="#050517" fill-rule="evenodd"/><path d="M715.454,575.043c6,0,10.432,4.287,10.43,10.079,0,5.885-4.638,10.3-10.811,10.3-5.946-.005-10-4.219-9.99-10.4C705.092,579.051,709.258,575.042,715.454,575.043Zm-6.754,8.806c.075.023.149.045.225.067.109,2.848.514,5.622,2.2,8.038a5.433,5.433,0,0,0,5.362,2.582,5.138,5.138,0,0,0,4.412-3.481,15.6,15.6,0,0,0,.945-4.772,11.811,11.811,0,0,0-2.353-8.041c-2.864-3.608-7.824-3.05-9.66,1.164A27.235,27.235,0,0,0,708.7,583.849Zm12.043,8.625c2.163-1.534,3.03-5.839,2.142-9.972-.588-2.744-2.6-5.728-4.409-5.95C722.721,579.6,723.6,588.189,720.743,592.474Zm-11.682-14.859c-3.234,2.74-4.043,6.271-3.188,10.253a8.139,8.139,0,0,0,4.68,5.9,10.672,10.672,0,0,1-4.138-7.714A11.083,11.083,0,0,1,709.062,577.615Z" transform="translate(-517.277 -574.998)" fill="#050517" fill-rule="evenodd"/><path d="M602.235,575.09c6.088-.048,10.518,4.181,10.531,10.048a10.257,10.257,0,0,1-10.365,10.27c-6.144.049-10.371-4.051-10.408-10.095C591.956,579.218,596.045,575.136,602.235,575.09Zm6.813,11.149c-.085-.022-.168-.044-.255-.068a14.215,14.215,0,0,0-1.471-6.512,7.025,7.025,0,0,0-3.144-3.193c-3.185-1.542-6.593.121-7.793,3.809a13.819,13.819,0,0,0-.275,6.494,11.656,11.656,0,0,0,2.083,5.382c2.753,3.644,7.757,3.158,9.587-1.026A30.666,30.666,0,0,0,609.048,586.239Zm-11.327,7.686a10.627,10.627,0,0,1-4.362-7.861,10.976,10.976,0,0,1,2.842-8.6c-3.041,2.349-4.026,5.528-3.615,9.18A8.672,8.672,0,0,0,597.721,593.925Zm7.641-17.466c4.636,4.686,4.888,10.106,2.477,15.941C611.621,589.216,610.745,578.174,605.362,576.46Z" transform="translate(-549.615 -574.985)" fill="#050517" fill-rule="evenodd"/><path d="M743.105,594.961c.26-.387.364-.746.57-.819a4.693,4.693,0,0,0,2.744-2.887c1.694-4.191,3.324-8.406,4.948-12.625a.945.945,0,0,0-.183-.853,11.186,11.186,0,0,0-1.609-.921c.032-.1.048-.516.19-.563,1.2-.405,2.416-.763,3.641-1.093.613-.165.88.19,1.1.758,2.006,5.176,4.055,10.336,6.075,15.507.48,1.229,1.06,2.317,2.486,2.681.194.05.3.453.525.827h-8.32c-.219-.543-.089-.76.5-.864,1.544-.265,1.79-.738,1.237-2.186-.477-1.247-.943-2.5-1.487-3.719a1.144,1.144,0,0,0-.826-.576c-1.76-.053-3.525-.04-5.289-.01a.921.921,0,0,0-.715.351,20.623,20.623,0,0,0-1.1,3.171c-.337,1.519.293,2.454,1.758,3.03.21.084.332.4.647.792Zm11.831-8.315c-.963-2.432-1.9-4.78-2.9-7.316-1,2.571-1.917,4.906-2.86,7.316Zm2.407,7.446c.958-.027,1.4-.487,1.269-1.339a7.561,7.561,0,0,0-.418-1.488c-1.089-2.8-2.2-5.594-3.3-8.39-.635-1.61-1.249-3.229-1.913-4.825-.327-.783-.838-1.384-1.722-1.236.4.707.855,1.38,1.187,2.108.437.966.781,1.975,1.169,2.963,1.272,3.252,2.551,6.5,3.813,9.756C757.74,592.452,758.1,593.283,757.343,594.092Zm-10.889-1.573c-.419.517-.838,1.031-1.3,1.6h1.929C746.869,593.579,746.676,593.089,746.454,592.519Z" transform="translate(-506.405 -574.965)" fill="#050517" fill-rule="evenodd"/><path d="M703.028,580.891c-.769.271-1.042-.062-1.378-.539a23.058,23.058,0,0,0-2.641-3.342,4.393,4.393,0,0,0-5.537-.554,3.324,3.324,0,0,0-1.487,3.224,2.556,2.556,0,0,0,2.051,2.3c1.811.5,3.664.849,5.5,1.249,2.516.549,4.348,1.889,4.975,4.487a6.325,6.325,0,0,1-7.945,7.453c-.93-.28-1.847-.6-2.779-.876a2.287,2.287,0,0,0-2.141.446,5.222,5.222,0,0,1-1.04.457v-7.146c.678-.261.975.049,1.2.661a10.724,10.724,0,0,0,2.78,4.33,5.244,5.244,0,0,0,5.653,1.124,3.677,3.677,0,0,0,2.258-3.632,3.343,3.343,0,0,0-2.49-3.334c-1.564-.472-3.194-.719-4.794-1.069-2.356-.514-4.191-1.638-4.768-4.175a5.565,5.565,0,0,1,6.331-6.843,18.151,18.151,0,0,0,1.98.3c.8.031,1.614-.055,2.42-.1.383-.023.765-.067,1.258-.109C702.637,577.152,702.833,579.011,703.028,580.891Zm-12.07-.206a4.614,4.614,0,0,0,3.938,4.893c1.6.34,3.23.57,4.818.957a3.88,3.88,0,0,1,3.149,2.947,12.877,12.877,0,0,1,.028,2.573c.2-.427.343-.687.436-.964a3.859,3.859,0,0,0-2.684-5.1,32.862,32.862,0,0,0-4.776-1.111C693.393,584.437,691.55,583.329,690.958,580.685Zm1.616,12.64c-.476-.719-.941-1.421-1.452-2.19v2.725C691.635,593.672,692.1,593.5,692.575,593.324Zm6.889-16.827c.656.752,1.21,1.389,1.763,2.027l.135-.078c-.111-.646-.221-1.291-.333-1.948Z" transform="translate(-521.507 -574.998)" fill="#050517" fill-rule="evenodd"/><path d="M559.3,595.137v-7.1c.621-.22.968-.066,1.2.6a10.791,10.791,0,0,0,2.819,4.41,5.232,5.232,0,0,0,5.569,1.124,3.692,3.692,0,0,0,2.315-3.6,3.387,3.387,0,0,0-2.463-3.363c-1.259-.417-2.595-.6-3.894-.9a18.082,18.082,0,0,1-2.379-.608,5.161,5.161,0,0,1-3.295-6.158,5.33,5.33,0,0,1,5.608-4.449,13.339,13.339,0,0,1,1.628.19,6.672,6.672,0,0,0,3.682.027,3.433,3.433,0,0,1,1.035-.015c.2,1.865.4,3.718.6,5.594-.66.262-.993.083-1.364-.478a21.96,21.96,0,0,0-2.482-3.239,4.526,4.526,0,0,0-5.449-.836,3.338,3.338,0,0,0-1.731,3.363,2.67,2.67,0,0,0,2.21,2.374c1.726.467,3.491.792,5.245,1.148,3.086.629,5.083,2.744,5.173,5.516a6.182,6.182,0,0,1-4.591,6.427,6.33,6.33,0,0,1-3.77-.093c-.774-.266-1.556-.512-2.339-.751a2.313,2.313,0,0,0-2.3.45A3.47,3.47,0,0,1,559.3,595.137Zm.21-14.58a11.594,11.594,0,0,0,.247,1.577c.674,2.254,2.365,3.232,4.557,3.622a34.426,34.426,0,0,1,4.781,1.053,3.776,3.776,0,0,1,2.558,4.394c-.03.211-.072.421-.143.829a4.826,4.826,0,0,0,.327-.458,3.916,3.916,0,0,0-2.521-5.593,39.512,39.512,0,0,0-5.045-1.135A5.556,5.556,0,0,1,559.511,580.557Zm1.784,12.758-1.456-2.205v2.749Zm6.917-16.738,1.706,1.989.151-.058c-.121-.68-.242-1.359-.36-2.021Z" transform="translate(-559.038 -574.985)" fill="#050517" fill-rule="evenodd"/><path d="M647.992,590.459c.26.131.5.247.939.471-.766.8-1.409,1.595-2.167,2.253-4.53,3.929-14.437,3.271-16.544-5.146-2.059-8.236,4.969-14.553,12.44-12.54a14.321,14.321,0,0,0,2.5.444,3.264,3.264,0,0,0,1.2-.327c.485-.169.959-.368,1.571-.6v6.324c-.544.2-.813-.008-1.13-.5a18.411,18.411,0,0,0-2.436-3.266,5.481,5.481,0,0,0-8.748,1.125,11.912,11.912,0,0,0-.247,11.946c2.355,4.449,7.9,4.891,11.521,1.071C647.26,591.318,647.6,590.9,647.992,590.459Zm-10.68,4.007c-3.521-1.727-5.771-4.408-6.076-8.374-.3-3.9,1.4-6.988,4.458-9.381-3.522,1.214-5.739,5.513-5.239,9.975C630.883,590.511,634.051,594.136,637.312,594.466Zm8.982-16.158c-.035-.568-.071-1.16-.108-1.781l-1.421.2C645.245,577.224,645.753,577.747,646.294,578.308Z" transform="translate(-538.788 -575.008)" fill="#050517" fill-rule="evenodd"/><path d="M591.893,581.543c-.3-.239-.709-.421-.886-.732a11.491,11.491,0,0,0-3.081-3.788,5.573,5.573,0,0,0-7.513.748c-2.989,3.37-3.016,10.741-.053,14.134a6.652,6.652,0,0,0,8.741,1.3,31.536,31.536,0,0,0,3.225-2.686l.655.373a10.137,10.137,0,0,1-7.349,4.492,9.968,9.968,0,0,1-11.375-7.8,10.081,10.081,0,0,1,12.309-12.168c.561.134,1.108.321,1.673.439a3.016,3.016,0,0,0,2.524-.395,4.4,4.4,0,0,1,1.345-.382v6.206C592.035,581.367,591.963,581.454,591.893,581.543Zm-9.835,13.106c-3.8-1.664-6.286-4.3-6.635-8.489-.341-4.076,1.445-7.215,4.676-9.627-3.871,1.447-6.074,5.729-5.425,10.388C575.219,590.842,578.512,594.329,582.058,594.649Zm8.284-16.5V576.5l-1.587.24C589.316,577.235,589.851,577.708,590.342,578.145Z" transform="translate(-554.764 -574.99)" fill="#050517" fill-rule="evenodd"/><path d="M616.288,594.917c-.221-.586-.059-.781.541-.818,2.111-.129,2.49-.562,2.49-2.7V576.211a7.156,7.156,0,0,0-5.789,2.244,12.105,12.105,0,0,1-1.013,1.169,5.646,5.646,0,0,1-1.2.572c.347-1.672.6-3.063.956-4.429.05-.192.562-.374.86-.374,3.738-.026,7.477-.017,11.214-.017,1.641,0,3.283.014,4.923-.009.513-.008.755.138.851.682.23,1.278.539,2.546.817,3.817-.721.324-1.1.036-1.456-.531a6.543,6.543,0,0,0-6.661-3.079v.862q0,7.156,0,14.315c0,2.031.409,2.492,2.469,2.663.6.049.752.247.527.822ZM619.835,576v1.278c0,4.74.021,9.48-.019,14.22a17.509,17.509,0,0,1-.4,2.605c.814.063,1.161-.562,1.168-1.354.042-5.132.046-10.264.058-15.4a1.063,1.063,0,0,0-.093-.534A7.325,7.325,0,0,0,619.835,576Zm6.952.238c.824.6,1.578,1.148,2.443,1.78-.188-.669-.338-1.209-.5-1.78Zm-12.317.017c-1.939-.166-2.051-.071-2.055,1.688C613.08,577.394,613.74,576.854,614.47,576.253Z" transform="translate(-544.09 -574.905)" fill="#050517" fill-rule="evenodd"/><path d="M656.478,602.918c.985,0,1.971-.033,2.953.031.193.012.423.377.529.625.932,2.171,1.839,4.352,2.835,6.728.352-.818.643-1.466.913-2.122.633-1.546,1.271-3.089,1.878-4.642a.834.834,0,0,1,.938-.64c.787.045,1.578.013,2.367.013.005.094.01.189.014.284a2.047,2.047,0,0,1-.455.162.917.917,0,0,0-.878,1.06q0,3.466,0,6.932a.883.883,0,0,0,.819,1.012.724.724,0,0,1,.512.391h-4.476c.019-.1.026-.21.042-.212,1.372-.145,1.313-1.111,1.29-2.131-.04-1.854-.011-3.707-.011-5.827-.215.409-.332.592-.411.787-.923,2.279-1.834,4.563-2.771,6.835a2.787,2.787,0,0,1-.528.64,3.582,3.582,0,0,1-.448-.629c-.925-2.212-1.829-4.433-2.743-6.65a1.083,1.083,0,0,0-.368-.512c0,1.9-.031,3.794.016,5.689a1.658,1.658,0,0,0,1.1,1.548.8.8,0,0,1,.435.473h-3.643c.15-.17.23-.352.354-.388a1.772,1.772,0,0,0,1.251-1.982c0-1.823-.048-3.651.021-5.473.036-.971-.26-1.515-1.263-1.588a1.044,1.044,0,0,1-.295-.126C656.461,603.11,656.47,603.015,656.478,602.918Zm1.661.347c1.3,3.045,2.559,5.981,3.815,8.916a.536.536,0,0,0,.126-.486c-1.043-2.547-2.085-5.1-3.167-7.628C658.784,603.76,658.426,603.553,658.139,603.265Zm7.815,9.09c.534-.531.779-6.422.315-8.9C665.815,606.386,666.173,609.354,665.954,612.356Z" transform="translate(-531.203 -567.034)" fill="#050517" fill-rule="evenodd"/><path d="M586.593,605.21c0,1.791-.012,3.583.006,5.374a1.736,1.736,0,0,0,1.116,1.722,4.912,4.912,0,0,1,.665.472h-3.755a.91.91,0,0,0-.01-.162c1.615-.665,1.529-2.041,1.5-3.423-.035-1.427-.063-2.86.012-4.284.049-.93-.231-1.454-1.183-1.568-.12-.014-.23-.118-.319-.4,1.008,0,2.018-.03,3.022.028.161.009.343.382.444.617.845,1.982,1.672,3.97,2.506,5.956.089.212.193.418.351.76.908-2.223,1.8-4.313,2.607-6.432.28-.739.643-1.069,1.453-.975.664.077,1.345.015,2.11.166-1.85.264-1.421,1.623-1.449,2.692-.044,1.7-.006,3.4-.013,5.105,0,.822.1,1.544,1.166,1.566a.241.241,0,0,1,.152.09c.032.044.028.112.058.257h-4.565c.051-.126.077-.265.113-.266,1.259-.09,1.348-.927,1.327-1.929-.042-1.937-.013-3.872-.177-5.857-.354.849-.711,1.7-1.057,2.547-.674,1.66-1.331,3.324-2.015,4.978a3.008,3.008,0,0,1-.456.6,2.707,2.707,0,0,1-.467-.59c-.869-2.069-1.715-4.148-2.572-6.223-.122-.3-.264-.588-.4-.881C586.7,605.174,586.649,605.192,586.593,605.21Zm-.409-2.086c1.37,3.2,2.626,6.133,3.881,9.066a.476.476,0,0,0,.127-.5c-1.035-2.519-2.067-5.038-3.135-7.543A5.244,5.244,0,0,0,586.184,603.124Zm8.222.311a59.715,59.715,0,0,0-.141,8.872A53.354,53.354,0,0,0,594.406,603.435Z" transform="translate(-551.725 -567.038)" fill="#050517" fill-rule="evenodd"/><path d="M624.863,602.909c.5,0,1-.005,1.5,0,1.642.018,3.295-.075,4.921.093,2.119.217,3.235,2.252,2.115,3.794a9.968,9.968,0,0,1-2.037,1.624c1.2,1.343,2.535,2.83,3.9,4.352a2.954,2.954,0,0,1-3.16-.93c-.79-.964-1.53-1.971-2.364-2.895a7.328,7.328,0,0,0-1.5-.945c0,1.436-.041,2.55.033,3.657.017.24.436.492.715.661a2.832,2.832,0,0,0,.766.221c-.014.077-.031.156-.044.233h-5.085c.3-.21.4-.347.507-.346,1.141.01,1.326-.7,1.309-1.631-.028-1.642,0-3.284-.012-4.928-.009-1.2.379-2.64-1.769-2.616Zm3.355,5.013a15.172,15.172,0,0,0,1.661-.113,2.07,2.07,0,0,0,1.928-2.632,2.128,2.128,0,0,0-2.645-1.834c-.572.058-.926.325-.937.9C628.2,605.418,628.218,606.594,628.218,607.922Zm-1.614,4.344c.059.017.118.032.176.05a2.556,2.556,0,0,0,.249-.747q.029-3.638,0-7.272a3.438,3.438,0,0,0-.28-.921l-.143.055Zm3.288-4.087-.224.2c.586.732,1.15,1.488,1.766,2.2s1.272,1.359,1.911,2.036l.189-.194Q631.713,610.3,629.892,608.179Zm1.766-4.366a3.61,3.61,0,0,1-.027,3.637A2.284,2.284,0,0,0,631.658,603.813Z" transform="translate(-540.284 -567.032)" fill="#050517" fill-rule="evenodd"/><path d="M732.116,608.24c1.429,1.57,2.758,3.03,4.127,4.532a2.922,2.922,0,0,1-3.034-.772c-.865-1.017-1.665-2.092-2.562-3.078a6.926,6.926,0,0,0-1.474-.9c0,1.422-.037,2.535.03,3.641.014.23.377.49.633.642a3.067,3.067,0,0,0,.823.22l-.031.22h-5.036c.22-.179.293-.279.387-.3,1.362-.374,1.363-.373,1.363-1.728q0-2.554,0-5.1c0-1.861,0-1.861-1.816-2.522a5.02,5.02,0,0,1,.795-.168c1.763-.012,3.525-.023,5.286.005a4.347,4.347,0,0,1,1.331.257,2.452,2.452,0,0,1,1.809,2.27,2.59,2.59,0,0,1-1.7,2.461C732.8,608.016,732.535,608.092,732.116,608.24Zm-2.94-.286a16.616,16.616,0,0,0,1.984-.225,2.146,2.146,0,0,0,1.5-2.995,2.227,2.227,0,0,0-2.906-1.307,1.035,1.035,0,0,0-.549.729C729.143,605.362,729.177,606.569,729.177,607.954Zm-1.625-4.5v8.89C728.253,611.516,728.175,604.068,727.551,603.449Zm6.923,8.989c-.62-.734-1.259-1.453-1.859-2.2-1.417-1.772-1.416-1.784-2.081-1.839C731.963,609.691,732.668,611.574,734.475,612.438Zm-2.145-8.887a3.356,3.356,0,0,1,.161,3.967A2.386,2.386,0,0,0,732.33,603.551Z" transform="translate(-511.432 -567.031)" fill="#050517" fill-rule="evenodd"/><path d="M635.447,612.716c.018-.09.026-.2.042-.2,1.489-.1,1.426-1.138,1.4-2.217-.037-1.61-.01-3.223-.01-4.835,0-1.71,0-1.71-1.456-2.45a6.079,6.079,0,0,1,.769-.1c1.733-.009,3.467-.019,5.2,0a4.849,4.849,0,0,1,5.063,4.871,4.778,4.778,0,0,1-4.622,5.013c-2.056.149-4.132.041-6.2.041C635.569,612.837,635.5,612.755,635.447,612.716Zm3.257-4.8c0,1.093.03,2.189-.009,3.28a1.021,1.021,0,0,0,1.112,1.216,4.305,4.305,0,0,0,2.932-.746c1.724-1.264,1.843-3.057,1.523-4.924a3.937,3.937,0,0,0-4.52-3.406.984.984,0,0,0-1.036,1.112C638.708,605.6,638.706,606.756,638.7,607.912Zm4.471,3.992c1.385-.585,2.117-2.387,1.9-4.669-.176-1.809-.994-3.139-2.079-3.378C645.217,606.04,645.286,609.073,643.175,611.9Zm-6.071.45c.68-.925.656-8.036,0-8.85Z" transform="translate(-537.196 -567.032)" fill="#050517" fill-rule="evenodd"/><path d="M745.594,610.429c-.275.8-.55,1.595-.819,2.371H736.1l-.066-.207a4.785,4.785,0,0,1,.719-.228.885.885,0,0,0,.842-.991q-.008-3.511,0-7.021a.871.871,0,0,0-.851-.979,1.127,1.127,0,0,1-.691-.3,1.8,1.8,0,0,1,.49-.154c2.432-.01,4.863-.023,7.294.017a1.1,1.1,0,0,1,.769.531,4.139,4.139,0,0,1,.469,1.766,5.079,5.079,0,0,1-.711-.458,5.073,5.073,0,0,0-3.719-1.436c-.8.031-1.25.36-1.228,1.22.023.962.006,1.924.006,3.04a7.244,7.244,0,0,0,2.256-.279c.55-.269.892-.963,1.439-1.6v3.93c-.516-.585-.865-1.273-1.415-1.526a7.149,7.149,0,0,0-2.221-.243c0,1.341-.051,2.575.041,3.795.021.261.539.635.873.694a4.213,4.213,0,0,0,4.085-1.471,6.892,6.892,0,0,1,.88-.712Zm-7.721,1.812c.046.021.1.04.143.059a3.467,3.467,0,0,0,.239-.882q.033-3.557,0-7.115a2.849,2.849,0,0,0-.265-.8l-.12.059v8.679Z" transform="translate(-508.426 -567.031)" fill="#050517" fill-rule="evenodd"/><path d="M688.522,602.753a5.006,5.006,0,0,1,5.333,5.019,5.164,5.164,0,0,1-5.3,5.307,5.164,5.164,0,1,1-.033-10.326Zm3.332,6.106c-.077-2.05-.329-3.6-1.544-4.793a2.687,2.687,0,0,0-4.517.813,6.546,6.546,0,0,0,.683,6.5,2.7,2.7,0,0,0,4.836-.491A10.673,10.673,0,0,0,691.854,608.859Zm-1.228-4.969c1.633,2.14,1.665,4.409,1.178,6.969C693.08,608.617,692.479,605.078,690.626,603.89Zm-6.137,1.238c-1.613,2.1-.994,5.672,1.2,6.776C683.733,609.884,683.564,607.615,684.489,605.128Z" transform="translate(-523.513 -567.075)" fill="#050517" fill-rule="evenodd"/><path d="M622.2,605.719v3.894c-.536-.573-.919-1.264-1.5-1.524a6.651,6.651,0,0,0-2.169-.2c0,1.307-.051,2.513.04,3.707.022.28.5.693.817.756a4.31,4.31,0,0,0,4.238-1.525,5.811,5.811,0,0,1,.814-.644l.231.2c-.279.811-.559,1.623-.85,2.466-2.807,0-5.571,0-8.333,0-.107,0-.215-.031-.37-.251a2.032,2.032,0,0,1,.552-.21c.784-.051,1.017-.51,1.012-1.224-.013-2.126-.03-4.254.008-6.381.017-.921-.25-1.475-1.265-1.445-.094,0-.192-.09-.282-.363.294-.022.589-.063.883-.064,2.158-.005,4.316.033,6.472-.022.765-.019,1.187.2,1.359.952a5.466,5.466,0,0,1,.287,1.389,4.539,4.539,0,0,1-.759-.482,4.941,4.941,0,0,0-3.722-1.409c-.719.028-1.168.328-1.182,1.081-.018,1-.005,1.992-.005,3.161a7.39,7.39,0,0,0,2.25-.264C621.279,607.069,621.626,606.373,622.2,605.719Zm-5.308-2.212v8.845C617.551,611.5,617.533,604.127,616.89,603.507Z" transform="translate(-543.002 -567.035)" fill="#050517" fill-rule="evenodd"/><path d="M597.359,612.888v-3.549l.214-.105c.165.229.331.454.491.684a18.013,18.013,0,0,0,1.411,1.987,2.359,2.359,0,0,0,2.353.644,1.894,1.894,0,0,0,1.529-1.705,1.764,1.764,0,0,0-1.229-1.915c-.833-.268-1.713-.391-2.571-.589a2.7,2.7,0,0,1-2.3-3.338,2.75,2.75,0,0,1,3.246-2.22c.918.091,1.841.132,2.821.2a2.047,2.047,0,0,1,.091.354,10.754,10.754,0,0,1,.041,2.5,6.174,6.174,0,0,1-.6-.544,16.762,16.762,0,0,0-1.336-1.6,2.082,2.082,0,0,0-2.609-.242,2.19,2.19,0,0,0-.822,1.485,1.891,1.891,0,0,0,1.029,1.3,13.432,13.432,0,0,0,2.645.635,3.013,3.013,0,0,1,2.608,3.845,3.225,3.225,0,0,1-4.164,2.194A3.234,3.234,0,0,0,597.359,612.888Zm6.372-1.822c.26-1.656-.132-2.374-1.438-2.819a9.785,9.785,0,0,0-1.5-.363c-1.2-.2-2.412-.361-3.136-1.565a2.322,2.322,0,0,0,1.979,1.789c.621.132,1.255.211,1.876.347C603.05,608.794,603.513,609.3,603.731,611.066Z" transform="translate(-548.125 -567.072)" fill="#050517" fill-rule="evenodd"/><path d="M704.96,602.994c-1.519.661-1.386,1.991-1.421,3.216-.035,1.183,0,2.37-.01,3.553a2.94,2.94,0,0,1-2.05,2.919,5.686,5.686,0,0,1-3.926.03,2.737,2.737,0,0,1-2.028-2.72c-.019-1.488-.019-2.977-.023-4.466,0-1.8,0-1.8-1.484-2.506h4.749a.91.91,0,0,0-.021.148c-1.528.165-1.469,1.242-1.433,2.366.046,1.4,0,2.794.015,4.191a2.415,2.415,0,0,0,2.493,2.659c1.625.181,3.046-.644,3.174-2.153a30.069,30.069,0,0,0-.084-5.621c-.063-.588-.891-1.092-1.352-1.616Zm-7.9,9.049a3.694,3.694,0,0,1-.839-2.842c.036-1.575.03-3.152-.008-4.728a4.689,4.689,0,0,0-.329-1.15,15.287,15.287,0,0,0-.057,2.472c.017,1.425,0,2.851.009,4.274A1.977,1.977,0,0,0,697.062,612.043Z" transform="translate(-520.441 -567.006)" fill="#050517" fill-rule="evenodd"/><path d="M652.283,612.779c1.18-.979,1.111-.957.64-2.434-.311-.98-.811-1.408-1.827-1.222-.235.044-.49-.026-.727.013-.449.073-1.173.063-1.282.31a5.465,5.465,0,0,0-.463,2.247c.005.382.509.756.745,1.074h-3.058c.08-.152.108-.307.185-.338a3.139,3.139,0,0,0,1.661-2.057c.657-1.664,1.273-3.345,1.964-4.995.34-.808.508-1.461-.7-1.7.012-.09.022-.18.033-.271a22.057,22.057,0,0,1,2.142-.556c.139-.024.422.367.522.612.8,2,1.557,4.016,2.373,6.007.486,1.188.639,2.605,2.015,3.315Zm-.066-4.163c-.489-1.225-.927-2.32-1.461-3.653l-1.4,3.653Zm-1.6-4.878,3.242,8.409C654.267,611.622,651.627,604.363,650.619,603.739Z" transform="translate(-534.083 -567.048)" fill="#050517" fill-rule="evenodd"/><path d="M584.5,612.8h-4.031c.012-.125,0-.217.027-.232,1.137-.621,1.154-.626.657-1.857-.782-1.946-.252-1.532-2.268-1.586-.152,0-.3,0-.455,0a1.854,1.854,0,0,0-1.732,2.427,5.1,5.1,0,0,0,1,1.2h-3.2c.018-.075.014-.252.075-.28a3.657,3.657,0,0,0,1.811-2.383c.609-1.584,1.193-3.18,1.865-4.737.356-.828.468-1.449-.706-1.687.009-.091.017-.181.026-.274.718-.194,1.427-.428,2.157-.552.136-.024.413.372.512.62.948,2.361,1.831,4.749,2.826,7.091A15.633,15.633,0,0,0,584.5,612.8Zm-5.613-7.857-1.4,3.612h2.823ZM582,612.156c.426-.607-2.4-8.076-3.223-8.321C579.841,606.591,580.925,609.393,582,612.156Z" transform="translate(-554.617 -567.048)" fill="#050517" fill-rule="evenodd"/><path d="M722.292,602.968h3.543c-1.816.9-1.34,2.55-1.4,4-.035.88.01,1.762-.014,2.643a4.425,4.425,0,0,1-.169,1.162c-.516,1.665-2.436,2.542-4.786,2.212-2.043-.287-3.048-1.349-3.063-3.275-.014-1.61,0-3.22,0-4.829,0-1.3,0-1.3-1.324-1.564-.076-.014-.14-.09-.435-.292h4.941c-.032.1-.046.2-.067.2-1.161.085-1.354.792-1.309,1.808.069,1.607,0,3.22.023,4.83.017,1.552.842,2.366,2.509,2.53,1.588.153,3.029-.7,3.133-2.106a49.821,49.821,0,0,0,0-5.542c-.031-.934-.77-1.346-1.647-1.543C722.244,603.125,722.267,603.046,722.292,602.968Zm-4.335,9.088a3.372,3.372,0,0,1-.835-2.666q.058-2.365-.006-4.732a6.2,6.2,0,0,0-.323-1.317,6.041,6.041,0,0,0-.149,1.593c0,1.577-.01,3.153.005,4.731A2.307,2.307,0,0,0,717.957,612.056Z" transform="translate(-514.544 -567.013)" fill="#050517" fill-rule="evenodd"/><path d="M704.815,605.139c.127-.613.216-1.24.4-1.835a.754.754,0,0,1,.588-.378c2.793-.026,5.587-.018,8.453-.018.167.766.324,1.485.481,2.207-.066.049-.132.1-.2.146a3.641,3.641,0,0,1-.615-.472,3.2,3.2,0,0,0-3.26-1.406v4.071c0,1.184.036,2.371-.013,3.554-.036.851.238,1.343,1.141,1.389.14.008.273.144.37.372H707.1c.234-.19.323-.316.433-.345,1.3-.33,1.3-.327,1.3-1.7v-7.291c-1.786-.4-2.724.97-3.849,1.912C704.933,605.278,704.873,605.209,704.815,605.139Zm4.264,7.161c.586-.63.7-8.105,0-8.945Z" transform="translate(-517.354 -567.03)" fill="#050517" fill-rule="evenodd"/><path d="M614.625,602.945c.159.73.314,1.431.467,2.132-.074.065-.149.131-.224.194a9.429,9.429,0,0,0-1.609-1.439,11.029,11.029,0,0,0-2.257-.675v5.052c0,.912.031,1.826-.009,2.738-.037.871.226,1.427,1.193,1.444a.554.554,0,0,1,.252.077c.046.024.067.094.175.258H607.52c.168-.159.234-.271.325-.3,1.362-.428,1.364-.427,1.364-1.853v-7.424a12.811,12.811,0,0,0-2.241.755,9.687,9.687,0,0,0-1.568,1.381l-.221-.138.44-2.2Zm-5.175.539v8.764C609.974,611.8,610.208,604.81,609.451,603.484Z" transform="translate(-545.844 -567.02)" fill="#050517" fill-rule="evenodd"/><path d="M682.939,610.843a5.4,5.4,0,0,1-6.879,1.694,5.236,5.236,0,0,1-2.364-6.506,5.086,5.086,0,0,1,6.059-3.13,5.725,5.725,0,0,0,1.421.261,6.144,6.144,0,0,0,1.4-.393v3.374a4.554,4.554,0,0,1-.69-.656c-1.193-1.886-2.409-2.591-3.878-2.222-1.341.334-2.356,1.822-2.479,3.792a8.266,8.266,0,0,0,.175,2.348,3.59,3.59,0,0,0,2.639,2.965,3.781,3.781,0,0,0,3.767-1.292,6.655,6.655,0,0,1,.669-.523C682.831,610.651,682.887,610.748,682.939,610.843Zm-7.059-6.975c-1.561.656-2.461,2.847-2.187,4.834.228,1.641,1.366,3.172,2.477,3.355C673.376,609.517,673.292,607.116,675.881,603.868Z" transform="translate(-526.35 -567.074)" fill="#050517" fill-rule="evenodd"/></g><g transform="translate(95.953)"><path d="M676.3,536.6h-1.124c-8.06,0-16.119.018-24.18-.021a2.9,2.9,0,0,0-2.605,1.343c-.925,1.318-1.868,2.625-2.841,3.908a3.311,3.311,0,0,1-2.482,1.522c-.212.012-.526.412-.571.671-.1.593-.023,1.215-.105,1.816a5.518,5.518,0,0,1-.4,1.045,2.9,2.9,0,0,0-.244.823c-.041,1.062,0,2.13-.083,3.188-.025.31-.372.594-.571.89-.18-.315-.482-.62-.514-.949-.077-.783-.016-1.58-.031-2.37-.013-.664.211-1.39-.581-1.844-.154-.089-.162-.5-.168-.761-.021-.786-.008-1.573-.008-2.451-.356-.026-.647-.045-.94-.068-1.438-.114-1.731-.432-1.733-1.97q-.012-6.113,0-12.227v-1.124c-.792,0-1.508.014-2.226,0-.93-.023-1.234-.351-1.242-1.292-.008-1.006.3-1.355,1.253-1.376.694-.014,1.389,0,2.216,0,0-1.339-.009-2.6,0-3.868.008-.646.026-1.287.818-1.561.132-.045.223-.381.233-.588.024-.6.141-1.079.863-1.182.158-.022.314-.231.422-.39a1.106,1.106,0,0,1,1.888-.1,1.4,1.4,0,0,0,.905.489q19.891.037,39.781.008c.322,0,.916-.188.921-.306.026-.637.14-1.512-.216-1.871a2.74,2.74,0,0,1-.6-2.529h2.087c.071-.39.122-.676.18-.99h.763c.044.284.085.548.143.923h2.082a3.04,3.04,0,0,1-.521,2.515,2.523,2.523,0,0,0-.1,2.232,3.306,3.306,0,0,1,.649,2.533h-2.09c0,.093,0,.185,0,.278.981,0,1.964.022,2.942-.031.108-.005.27-.433.278-.67.033-.941.035-1.886.008-2.828-.026-.815.351-1.179,1.145-1.173.759.005,1.52.008,2.28,0,.829-.012,1.213.342,1.184,1.215-.045,1.427-.011,2.857-.011,4.289v32.026c0,.635.044,1.276-.005,1.908-.091,1.161-.451,1.484-1.616,1.485q-6.753.01-13.5,0h-7.156c-.045-3.3-.22-6.713,2.112-9.273C675.659,544.955,676.368,541.3,676.3,536.6Zm-4.519,19.621h1.075q9.031,0,18.068,0c1.291,0,1.291.017,1.312-1.283,0-.121,0-.243,0-.364V517.306H689.5c0,.562,0,1.015,0,1.467,0,.486-.009.973-.028,1.46-.054,1.394-.347,1.676-1.773,1.676-4.137,0-8.275.08-12.409-.018a41.364,41.364,0,0,0-14.314,2.329c-3.19,1.075-6.378,2.184-9.627,3.054-3.039.814-5.332-.607-6.263-3.619-.212-.684-.181-1.44-.355-2.141-.064-.265-.379-.66-.59-.666-1.854-.053-3.711-.042-5.566-.009-.18,0-.5.288-.508.45-.042,1.326-.023,2.653-.023,4.061.841,0,1.566-.009,2.289,0,.975.017,1.287.349,1.29,1.337s-.3,1.318-1.289,1.333c-.743.01-1.487,0-2.29,0,0,4.664,0,9.16,0,13.657,0,.532.28.725.815.711,1.216-.03,2.436-.055,3.65.006a2.44,2.44,0,0,0,2.258-1.1c.853-1.183,1.741-2.344,2.533-3.567a4.4,4.4,0,0,1,4.051-2.123c8.3.044,16.607.019,24.911.019h1.224c-.279,2.586-.474,5-.82,7.4a7.356,7.356,0,0,1-1.977,4.142C672.223,549.682,671.786,552.8,671.786,556.224Zm10.252-37.43H641.522V519.9h2.128c1.879,0,1.957.076,2.019,1.913.112,3.39,2.47,5.319,5.747,4.466,2.753-.718,5.45-1.674,8.143-2.608a43.2,43.2,0,0,1,15.892-2.694c2.671.1,5.351.018,8.026.014.26,0,.52-.036.779-.057-.008-.084-.014-.167-.021-.251h-2.106C682.1,520.02,682.068,519.451,682.037,518.794Zm-41.589,8.258c.086-.071.174-.14.26-.21-.184-.183-.363-.521-.55-.526-1.811-.04-3.621-.024-5.4-.024-.252.643.019.769.517.764C637,527.044,638.723,527.052,640.449,527.052ZM686.537,514.3h-3.62c-.018.733.311,1.069.98,1.069.607,0,1.215-.013,1.822-.03C686.376,515.322,686.636,514.974,686.537,514.3Zm-.018,5.54c-.033-1.143-.432-1.3-2.637-1.121-.684.057-1.043.364-.91,1.121ZM641.5,546.207c0-.977.018-1.7-.017-2.414a.582.582,0,0,0-.338-.395c-.1-.037-.388.131-.392.215a21.568,21.568,0,0,0,.011,2.253C640.77,545.966,641.125,546.04,641.5,546.207Z" transform="translate(-633.655 -512.459)" fill="#050517" fill-rule="evenodd"/><path d="M634.466,552.5c.264-1.057.431-1.988.73-2.874a2.167,2.167,0,0,1,2.456-1.713q27.726,0,55.453,0c1.51,0,2.019.381,2.425,1.8.258.9.5,1.8.782,2.787-2.812,0-5.512,0-8.213-.005a.565.565,0,0,1-.413-.145c-.611-.9-1.535-.689-2.389-.689q-20.2-.006-40.4-.005c-.643,0-1.278-.051-1.7.6a.759.759,0,0,1-.559.237C639.96,552.5,637.289,552.5,634.466,552.5Zm1.251-.913c2.236,0,4.388.006,6.539-.009.152,0,.294-.181.454-.246a4.855,4.855,0,0,1,1.564-.566q21.112-.046,42.221-.014c.382,0,.905.022,1.117.256.66.723,1.467.579,2.267.584.82.005,1.641,0,2.463,0h2.74c-.187-.652-.368-1.138-.46-1.641a1.251,1.251,0,0,0-1.5-1.106c-.972.035-1.946.008-2.919.008H637.863c-1.223,0-1.562.226-1.859,1.3C635.883,550.586,635.825,551.036,635.717,551.585Z" transform="translate(-633.423 -502.322)" fill="#050517" fill-rule="evenodd"/><path d="M683.791,523.136c.387,0,.658.013.93,0,.592-.032.846.307.851.832.018,1.672.033,3.345,0,5.016-.024,1.175-1,.781-1.782.935,0,.75-.012,1.525,0,2.3a.97.97,0,0,1-1.039,1.106c-.09.005-.181,0-.273,0-2.1.04-2.156-.01-2.156-2.088q0-5.108,0-10.219c0-1.1.238-1.337,1.324-1.348h.093c2.049-.009,2.049-.009,2.049,2Zm-.985,9.164V520.674h-1.512V532.3Zm1.305-8.351-.273.231v4.678l.258.167c.171-.225.481-.444.49-.674.05-1.237.05-2.478,0-3.715C684.579,524.4,684.28,524.178,684.111,523.949Z" transform="translate(-620.31 -510.398)" fill="#050517" fill-rule="evenodd"/><path d="M642.63,532.8a1.587,1.587,0,0,1-.307,2.176,2.469,2.469,0,0,1-2.818.076,2.671,2.671,0,0,1,.331-4.5,13.309,13.309,0,0,1,1.547-.665c-.957-.691-1.658-1.485-1.259-2.7a2.338,2.338,0,0,1,2.051-1.588,2.055,2.055,0,0,1,2.24,1.008c-.3-.078-.593-.158-.891-.231a1.729,1.729,0,0,0-2.126.754c-.266.694.17,1.443,1.147,1.913a7.863,7.863,0,0,0,4.654.453,29.568,29.568,0,0,0,10.92-3.864,19.886,19.886,0,0,1,11.6-3.161,28.016,28.016,0,0,1,2.775.483,4.226,4.226,0,0,0,1.6.177,2.526,2.526,0,0,0,1.286-.935c.117-.158-.17-.813-.442-1.025a1.363,1.363,0,0,0-1.768.067,4.645,4.645,0,0,0-.591.688,1.227,1.227,0,0,1,.693-1.6,2.528,2.528,0,0,1,3,.864c.6.988.372,1.889-.674,2.8,1.667,1.526,3.324,3.075,5.02,4.578a5.919,5.919,0,0,0,1.534.962,2.209,2.209,0,0,0,2.952-.8c.437-.882.112-1.569-1.133-2.389a2.09,2.09,0,0,1,2.214,1.354,2.189,2.189,0,0,1-.589,2.571,3.734,3.734,0,0,1-4.089.635,19.316,19.316,0,0,1-2.1-1.186c-.033.089-.1.234-.148.385a4.091,4.091,0,0,1-6.113,2.317,2.977,2.977,0,0,1-1.249-3.86,3.018,3.018,0,0,1,1.02-.971c-.8,2.059-.211,3.593,1.646,4.075a2.594,2.594,0,0,0,2.719-.863,2.128,2.128,0,0,0,.185-2.56,7.876,7.876,0,0,0-5.747-3.926,9.279,9.279,0,0,0-3.058.009,2.781,2.781,0,0,0-1.463.836,1.649,1.649,0,0,0-.338,2.162,2.193,2.193,0,0,0,1.5.756,1.7,1.7,0,0,0,1.674-1.42c.1-.337.147-.691.237-1.134a2.353,2.353,0,0,1-.361,3.042,2.956,2.956,0,0,1-3.633.06c-1.322-1.024-1.354-2.181-.066-4.633-2.663.44-5.1,1.164-6.993,3.1a2.866,2.866,0,0,0-.675,1.445,1.464,1.464,0,0,0,1.184,1.767,1.59,1.59,0,0,0,1.866-1.094c.143-.413.206-.857.356-1.507a2.3,2.3,0,0,1,.18,2.391,2.461,2.461,0,0,1-2.306,1.366c-1.184.064-1.876-.391-2.559-1.682-1.008,1.232-2.191,2.076-3.863,1.525a1.348,1.348,0,0,1-1-1.318c.13-.036.212-.082.238-.062,1.263,1.038,1.962,1.053,3.2-.117a19.229,19.229,0,0,0,1.634-2l-.175-.2a1.625,1.625,0,0,0-.375.1c-4.025,2.115-8.375,2.76-12.852,2.973a10.467,10.467,0,0,0-3.561.9,1.537,1.537,0,0,0-.773,2.226,1.341,1.341,0,0,0,1.452.869,1.259,1.259,0,0,0,1.267-1.2A6.084,6.084,0,0,1,642.63,532.8Z" transform="translate(-632.292 -510.264)" fill="#050517" fill-rule="evenodd"/><path d="M676.623,545.223c-.091.983-.7,1.1-1.307,1.116a1.3,1.3,0,0,1-1.382-1.084,1.829,1.829,0,0,1,1.655-2.344,2.739,2.739,0,0,1,3.032,1.95,20.927,20.927,0,0,1,.536,2.713,2.219,2.219,0,0,1,2.6,1.006,2.116,2.116,0,0,1-.215,2.4,2.254,2.254,0,0,1-2.367.841,9.65,9.65,0,0,0,1.488-.913,1.484,1.484,0,0,0,.237-2.117c-.562-.571-1.343-.486-2.068.251-.405.41-.761.869-1.162,1.283a5.825,5.825,0,0,1-5.676,1.921,10.08,10.08,0,0,1-2.037-.95,1.917,1.917,0,0,1-1.631,1.8,2.043,2.043,0,0,1-2.213-.714,1.805,1.805,0,0,1-.287-1.866,8.046,8.046,0,0,0,.468,1.01,1.536,1.536,0,0,0,1.778.787,1.211,1.211,0,0,0,.811-1.548c-.905-3.71.959-6.37,3.243-8.908a8.03,8.03,0,0,0,1.319-1.831,2.18,2.18,0,0,0-.4-2.541,1.917,1.917,0,0,0-2.055-.633,1.616,1.616,0,0,0-1.327,1.879,1.156,1.156,0,0,1-.105.615,1.929,1.929,0,0,1-.466-2.067,2.629,2.629,0,0,1,2.826-1.539c1.613.136,2.486,1.012,2.845,2.99.28-.294.51-.5.7-.745a21.36,21.36,0,0,0,4.584-9.8,6.757,6.757,0,0,0-.649-4.69,3.2,3.2,0,0,0-2.2-1.775,7.187,7.187,0,0,0-1.758.153,2.753,2.753,0,0,0,.188.5c.388.471.633,1.057.037,1.408a1.841,1.841,0,0,1-1.471-.005c-.566-.255-.594-.864-.333-1.429a3.305,3.305,0,0,1,3.317-1.607,4.837,4.837,0,0,1,3.782,3.561c.849,2.482.385,4.921-.414,7.323a26.115,26.115,0,0,1-5.663,8.948c-1.048,1.183-2.109,2.356-3.14,3.553a7.106,7.106,0,0,0-1.78,3.633,2.155,2.155,0,0,0,1.8,2.677,1.505,1.505,0,0,0,1.595-1.2,1.3,1.3,0,0,0-.907-1.579c-.212-.089-.419-.2-.671-.314a1.754,1.754,0,0,1,2.316.761c.655,1.112.223,2.365-1.328,3.431a8.5,8.5,0,0,0,.889,0,4.744,4.744,0,0,0,4.039-6.2,2.785,2.785,0,0,0-1.211-1.471,1.947,1.947,0,0,0-1.533.282,1.142,1.142,0,0,0-.143,1.1c.15.255.687.334,1.066.379C676.067,545.64,676.284,545.412,676.623,545.223Z" transform="translate(-624.495 -510.104)" fill="#050517" fill-rule="evenodd"/></g></g></svg>