<svg xmlns="http://www.w3.org/2000/svg" viewBox="0 0 486.97 59.07"><title>fp_black</title><polygon points="0 0 41.38 0 41.38 10.92 12.94 10.92 12.94 24.57 37.58 24.57 37.58 34.67 12.94 34.67 12.94 59.07 0 59.07 0 0"/><path d="M54.26,11.16H86c10.55,0,17.23,7.36,17.23,16.3,0,7-2.8,12.16-9.31,14.81v.17c6.34,1.65,8.16,7.86,8.57,13.82.25,3.72.17,10.67,2.48,14H92C90.44,66.5,90.61,60.8,90,56.08c-.91-6.2-3.29-8.93-9.81-8.93H67.2V70.23H54.26V11.16M67.2,37.88H81.38c5.77,0,8.9-2.48,8.9-8.43,0-5.71-3.13-8.19-8.9-8.19H67.2Z" transform="translate(-7.86 -11.16)"/><polygon points="102.88 0 146.9 0 146.9 10.92 115.83 10.92 115.83 23.58 144.34 23.58 144.34 33.67 115.83 33.67 115.83 48.15 147.56 48.15 147.56 59.07 102.88 59.07 102.88 0"/><path d="M160.85,11.16h25.39c15.25,0,26.71,9.6,26.71,29.21,0,17.12-8.74,29.87-26.71,29.87H160.85V11.16m12.94,48.15h11.54c7.5,0,14.67-4.63,14.67-17.71,0-11.91-4.12-19.52-17-19.52h-9.23Z" transform="translate(-7.86 -11.16)"/><path d="M229.59,11.16h26.55c14.67,0,20.35,9.35,20.35,18.95S270.81,49,256.14,49h-13.6V70.23H229.59V11.16M242.54,39h10c6,0,11.37-1.32,11.37-8.85s-5.36-8.85-11.37-8.85h-10Z" transform="translate(-7.86 -11.16)"/><polygon points="274.65 0 318.67 0 318.67 10.92 287.59 10.92 287.59 23.58 316.11 23.58 316.11 33.67 287.59 33.67 287.59 48.15 319.33 48.15 319.33 59.07 274.65 59.07 274.65 0"/><path d="M332.63,11.16h31.74c10.55,0,17.23,7.36,17.23,16.3,0,7-2.81,12.16-9.32,14.81v.17c6.35,1.65,8.17,7.86,8.58,13.82.25,3.72.16,10.67,2.48,14H370.38c-1.57-3.72-1.4-9.43-2.06-14.15-.91-6.2-3.3-8.93-9.81-8.93H345.57V70.23H332.63V11.16m12.94,26.72h14.18c5.77,0,8.9-2.48,8.9-8.43,0-5.71-3.13-8.19-8.9-8.19H345.57Z" transform="translate(-7.86 -11.16)"/><path d="M388.72,11.16h31.74c10.54,0,17.23,7.36,17.23,16.3,0,7-2.8,12.16-9.31,14.81v.17c6.34,1.65,8.16,7.86,8.57,13.82.24,3.72.17,10.67,2.47,14H426.48c-1.57-3.72-1.41-9.43-2.07-14.15-.91-6.2-3.3-8.93-9.81-8.93H401.66V70.23H388.72V11.16m12.94,26.72h14.18c5.77,0,8.9-2.48,8.9-8.43,0-5.71-3.13-8.19-8.9-8.19H401.66Z" transform="translate(-7.86 -11.16)"/><polygon points="452.18 36.07 430.5 0 445.09 0 458.86 23.33 472.54 0 486.96 0 465.12 36.41 465.12 59.07 452.18 59.07 452.18 36.07"/></svg>