<svg xmlns="http://www.w3.org/2000/svg" viewBox="0 0 841.89 595.28"><title>fp_black</title><polygon points="165.86 292.16 207.23 292.16 207.23 303.08 178.8 303.08 178.8 316.73 203.44 316.73 203.44 326.82 178.8 326.82 178.8 351.23 165.86 351.23 165.86 292.16" fill="#132738"/><path d="M212.26,292.16H244c10.55,0,17.23,7.36,17.23,16.3,0,7-2.8,12.16-9.31,14.81v.17c6.34,1.65,8.16,7.86,8.57,13.82.25,3.72.17,10.67,2.48,14H250c-1.57-3.72-1.4-9.43-2.06-14.15-.91-6.2-3.29-8.93-9.81-8.93H225.2v23.08H212.26V292.16m12.94,26.72h14.18c5.77,0,8.9-2.48,8.9-8.43,0-5.71-3.13-8.19-8.9-8.19H225.2Z" fill="#132738"/><polygon points="268.74 292.16 312.75 292.16 312.75 303.08 281.68 303.08 281.68 315.74 310.2 315.74 310.2 325.83 281.68 325.83 281.68 340.31 313.41 340.31 313.41 351.23 268.74 351.23 268.74 292.16" fill="#132738"/><path d="M318.85,292.16h25.39c15.25,0,26.71,9.6,26.71,29.21,0,17.12-8.74,29.87-26.71,29.87H318.85V292.16m12.94,48.15h11.54c7.5,0,14.67-4.63,14.67-17.71,0-11.91-4.12-19.52-17-19.52h-9.23Z" fill="#132738"/><path d="M387.59,292.16h26.55c14.67,0,20.35,9.35,20.35,18.95S428.81,330,414.14,330h-13.6v21.18H387.59V292.16M400.54,320h10c6,0,11.37-1.32,11.37-8.85s-5.36-8.85-11.37-8.85h-10Z" fill="#132738"/><polygon points="440.51 292.16 484.52 292.16 484.52 303.08 453.45 303.08 453.45 315.74 481.97 315.74 481.97 325.83 453.45 325.83 453.45 340.31 485.19 340.31 485.19 351.23 440.51 351.23 440.51 292.16" fill="#132738"/><path d="M490.63,292.16h31.74c10.55,0,17.23,7.36,17.23,16.3,0,7-2.81,12.16-9.32,14.81v.17c6.35,1.65,8.17,7.86,8.58,13.82.25,3.72.16,10.67,2.48,14H528.38c-1.57-3.72-1.4-9.43-2.06-14.15-.91-6.2-3.3-8.93-9.81-8.93H503.57v23.08H490.63V292.16m12.94,26.72h14.18c5.77,0,8.9-2.48,8.9-8.43,0-5.71-3.13-8.19-8.9-8.19H503.57Z" fill="#132738"/><path d="M546.72,292.16h31.74c10.54,0,17.23,7.36,17.23,16.3,0,7-2.8,12.16-9.31,14.81v.17c6.34,1.65,8.16,7.86,8.57,13.82.24,3.72.17,10.67,2.47,14H584.48c-1.57-3.72-1.41-9.43-2.07-14.15-.91-6.2-3.3-8.93-9.81-8.93H559.66v23.08H546.72V292.16m12.94,26.72h14.18c5.77,0,8.9-2.48,8.9-8.43,0-5.71-3.13-8.19-8.9-8.19H559.66Z" fill="#132738"/><polygon points="618.03 328.23 596.35 292.16 610.94 292.16 624.72 315.49 638.39 292.16 652.82 292.16 630.98 328.56 630.98 351.23 618.03 351.23 618.03 328.23" fill="#132738"/></svg>