<svg xmlns="http://www.w3.org/2000/svg" viewBox="0 0 353.24 320.76"><defs><style>.a{fill:#fff;}</style></defs><title>laurel_white</title><path class="a" d="M12.31,187c22.71,1.15,44.53,18.9,53.11,41.07-17.63-4.24-34.88-12.23-45.85-29.38-2.07-4.16-4.82-7.74-7.26-11.68" transform="translate(-12.31 -20.94)"/><path class="a" d="M17.48,145.63C39.36,153.5,53,178.19,54.82,200.81c-14.18-7.56-27.84-22-33-37.74-1.82-5.6-2.25-11.81-4.34-17.44" transform="translate(-12.31 -20.94)"/><path class="a" d="M19,102.51c19.45,12.92,32,34.41,29.94,58.81l-.86,0C28.58,147,19.43,125.93,19,102.51" transform="translate(-12.31 -20.94)"/><path class="a" d="M43.22,64.91h.71c11.53,19.26,19,45.29,9.59,68.29-14.77-18-21.38-46.27-10.3-68.3" transform="translate(-12.31 -20.94)"/><path class="a" d="M40.73,228.53c24.34,0,46.59,17.45,56.7,40.41-22.63-4.7-47.23-15.78-56.7-40.41" transform="translate(-12.31 -20.94)"/><path class="a" d="M114.48,285.48c-3.61,2.37-8.45,3.18-12.92,3.86-21.67,3-40.54-4.8-57.71-14.45,22.26-12.49,51.76-3.89,70.63,10.59" transform="translate(-12.31 -20.94)"/><path class="a" d="M79.91,115.75l.66,1.17c-.85,19-5.42,37.05-19.08,50.23-2.89,2.36-5.12,5.87-7.61,7.51-2.28-23.94,4.54-48,26-58.91" transform="translate(-12.31 -20.94)"/><path class="a" d="M69.37,31.56h.56c4.45,13,7.9,28,4.26,42.84-1.63,8.74-5.47,16.5-9.71,24.29C54.74,79.07,55,49.22,69.37,31.56" transform="translate(-12.31 -20.94)"/><path class="a" d="M111.44,72.63c-7.61,16.11-20.32,34-36.86,41.93-4.7,1.75-9.41,3.37-13.74,6.28,6.32-22.65,26.21-46.8,50.6-48.21" transform="translate(-12.31 -20.94)"/><path class="a" d="M65.17,171.12c15.85,16.5,18,43.42,11.59,65.18-14.6-16.91-21.62-43.17-11.59-65.18" transform="translate(-12.31 -20.94)"/><path class="a" d="M106.11,28.11l6.21-5.84c.47,25-12.49,48.84-35,59.64l-.34-.53c3.93-20.33,10.88-40.5,29.18-53.27" transform="translate(-12.31 -20.94)"/><path class="a" d="M143.7,295.63c2.11,1,4.55,2,5.8,3.9-19.23,14.2-47.78,13.59-69.84,6.06,17.9-12.22,42.28-16.82,64-10" transform="translate(-12.31 -20.94)"/><path class="a" d="M121.76,278.85c0,1.53.5,3,.28,4.86-22.87-11.81-33.12-38.26-36.65-62.58C107,231,119,255.68,121.76,278.85" transform="translate(-12.31 -20.94)"/><path class="a" d="M186,311.54l2.5.59c24.11-9,59.44-13.86,79.28,7-19.25,7.65-43.66,3.13-61.41-5.19-3.41-1.4-7.66-3.49-11.07-1.12-.75.52-1.62.7-2,1.6,8.46,6.94,14.51,17.87,23.53,23.57a12.83,12.83,0,0,1-3.28,3.69C200,337.72,201,320,187.7,315.84c-4.57,1.24-8,5.83-11.31,9.33-4.19,4.73-7.47,10.37-11.55,14.94-2.51.7-4.37-1.37-6.36-2.75l1.19-1.83c7.4-7.32,15.74-14.09,23.35-20.88.53-.9-.33-1.69-1-2l-3.43.26c-18.41,8.67-40.68,20.41-61.36,9.22C134.71,305,164,301.47,186,311.54" transform="translate(-12.31 -20.94)"/><path class="a" d="M124.73,262.67c23.57,1.37,44,19.46,53.84,41.47-2.67.69-6.12-.32-8.87-.9-19.1-4.67-36.16-22.12-45.3-40Z" transform="translate(-12.31 -20.94)"/><path class="a" d="M253.22,259.92c-8.15,25.22-34.87,39.7-57.5,44.85,9.22-25,34.18-39.9,57.5-44.85" transform="translate(-12.31 -20.94)"/><path class="a" d="M295.87,294.81c1.95,1.17,4.29,1.79,5.46,3.47-20.88,6.9-49.4,13.87-69.17-.73,16.68-14,45.32-13.17,63.71-2.74" transform="translate(-12.31 -20.94)"/><path class="a" d="M251.92,25.06c20.05,8.19,34,29.52,37.2,50.87C269.24,69.25,254,46.58,251.34,25.62Z" transform="translate(-12.31 -20.94)"/><path class="a" d="M257.09,68.27c21.9,2.63,43,18.11,52.58,39.78-21.79-3-43.35-17-53-39.39Z" transform="translate(-12.31 -20.94)"/><path class="a" d="M288,222.43c1.43-.52,2.4-2.58,4-2.93a64.24,64.24,0,0,1-35.08,61l-.67-.19c2.36-23.14,11.16-45.92,31.74-57.9" transform="translate(-12.31 -20.94)"/><path class="a" d="M334.87,265C317,284.13,291,286.87,265.69,282.68c17.48-19.48,44.07-22.89,69.18-17.65" transform="translate(-12.31 -20.94)"/><path class="a" d="M292.93,20.94C306.62,38.4,311.1,66.43,300,87c-13.5-17.63-15-45.08-7.12-66" transform="translate(-12.31 -20.94)"/><path class="a" d="M342.53,216.09c-1.39,5.6-5,10.57-8.18,15.54C323,249.93,304,258.54,285.85,263.08c8-25.24,34-40.83,56.68-47" transform="translate(-12.31 -20.94)"/><path class="a" d="M289.51,107.09a59.44,59.44,0,0,1,33.32,57c-20.71-11.39-30.74-34.53-33.32-57" transform="translate(-12.31 -20.94)"/><path class="a" d="M310.19,159.71c5.88,10.77,6.87,26.46,4.13,39.88a93.51,93.51,0,0,1-15.4,33.33c-9.06-24.63-.13-52.28,11.27-73.21" transform="translate(-12.31 -20.94)"/><path class="a" d="M315.64,52.7h.53c14.36,18.93,15.25,49.75,5,71-3.82-5.84-6-13-8.42-19.75-4.9-15.54-4.87-37,2.86-51.25" transform="translate(-12.31 -20.94)"/><path class="a" d="M351.37,179.08c4.82-1.2,9.48-2.79,14.19-4.2-8.45,22.81-31,46-55.71,46.41,8.23-17.19,23.32-36,41.52-42.21" transform="translate(-12.31 -20.94)"/><path class="a" d="M333.76,151.72A83.09,83.09,0,0,1,353,133.95c1.51,25.63-12.26,47.41-32.71,61.85l-.39-.23c.1-16.64,4.52-31.47,13.81-43.84" transform="translate(-12.31 -20.94)"/><path class="a" d="M350.75,82.63c4.55,23-.32,47.55-18.13,63.16l-5.26,4.91A77.79,77.79,0,0,1,334.81,101c3.55-7,9.7-13.27,15.94-18.38" transform="translate(-12.31 -20.94)"/></svg>